<?xml version="1.0" encoding="UTF-8" standalone="no"?>
<!-- <?xml version="1.0" encoding="UTF-8" standalone="no"?>

<svg
   width="225"
   height="205"
   viewBox="0 0 56.25 51.25"
   version="1.1"
   id="svg1"
   xml:space="preserve"
   xmlns="http://www.w3.org/2000/svg"
   xmlns:svg="http://www.w3.org/2000/svg"><defs
     id="defs1" /><g
     id="layer1"
     transform="translate(-22.083082,-21.252682)"><g
       id="g8"
       transform="matrix(2.2437404,0,0,2.2902494,-61.806431,-130.32774)"><path
         id="path6"
         style="opacity:0.98;stroke-width:1.01671;stroke-linecap:round;stroke-linejoin:round;stroke-miterlimit:1;paint-order:stroke markers fill"
         d="M 49.697554,88.188846 41.005266,82.444405 A 0.65002985,0.65002985 54.496003 0 1 40.73424,82.064496 L 37.746772,70.485615 c -0.03449,-0.133693 0.03086,-0.303893 0.146771,-0.378906 11.511757,-7.449652 22.043757,-1.269913 24.059507,0.02324 0.116169,0.07453 0.181099,0.244687 0.146185,0.378271 l -3.020457,11.556477 a 0.65309071,0.65309071 125.59405 0 1 -0.271787,0.379711 l -8.692299,5.744441 a 0.37829155,0.37829155 1.5912124e-5 0 1 -0.417138,0 z" /><path
         id="path7"
         style="display:inline;opacity:0.98;fill:#ffffff;stroke-width:1.01671;stroke-linecap:round;stroke-linejoin:round;stroke-miterlimit:1;paint-order:stroke markers fill"
         d="m 49.906123,67.699242 c 3.783516,0 7.568416,1.0507 11.007237,3.1503 L 58.128307,81.502746 49.906123,86.93624 41.683939,81.502746 38.898885,70.849542 c 3.438822,-2.0996 7.223722,-3.1503 11.007238,-3.1503 z" /><path
         id="path8"
         style="opacity:0.98;fill:#000000;stroke-width:0.929054;stroke-linecap:round;stroke-linejoin:round;stroke-miterlimit:1;paint-order:stroke markers fill"
         d="m 50.15611,67.641628 c 2.977695,0.05347 5.949519,1.062233 8.668731,3.024743 0.111957,0.0808 0.178195,0.257108 0.149179,0.392096 l -2.20258,10.24677 a 0.7044272,0.7044272 121.67102 0 1 -0.247402,0.401032 l -6.423051,5.162289 a 0.31105634,0.31105634 -180 0 1 -0.389728,0 l -6.423052,-5.162289 a 0.70442692,0.70442692 58.328982 0 1 -0.247402,-0.401032 l -2.202578,-10.24677 c -0.02902,-0.134988 0.03722,-0.311295 0.149179,-0.392097 2.719211,-1.96251 5.691036,-2.971275 8.668731,-3.024742 0.138047,-0.0025 0.361925,-0.0025 0.499973,0 z"
         transform="matrix(1.0832912,0,0,1,-4.1567418,0)" /><path
         style="fill:#ffffff;stroke-width:0.0360416"
         d="m 50.428587,82.690792 c 0.09385,-0.07528 0.235316,-0.221158 0.314364,-0.324167 0.07905,-0.103013 0.186748,-0.264941 0.23933,-0.35985 0.05258,-0.0949 0.09561,-0.192782 0.09561,-0.217497 0,-0.03295 -0.0469,-0.03065 -0.1757,0.0087 -0.09663,0.02945 -0.318772,0.06441 -0.493636,0.07764 -0.317934,0.0241 -0.317934,0.0241 -0.146756,-0.175978 0.09415,-0.11003 0.217053,-0.300376 0.27313,-0.422965 0.05609,-0.122575 0.12763,-0.325972 0.15898,-0.451961 0.04098,-0.164612 0.05308,-0.322983 0.043,-0.562807 -0.01063,-0.252937 -0.03512,-0.387068 -0.101267,-0.554015 -0.04798,-0.12116 -0.148799,-0.29773 -0.224043,-0.392396 -0.07523,-0.09466 -0.223422,-0.225303 -0.329302,-0.290309 -0.105886,-0.06501 -0.273719,-0.145857 -0.372983,-0.179671 -0.09925,-0.03381 -0.295045,-0.07176 -0.435066,-0.08434 -0.170188,-0.01527 -0.342421,-0.0028 -0.519531,0.03775 -0.145712,0.03332 -0.362573,0.113606 -0.481898,0.17835 -0.11932,0.06475 -0.221818,0.112126 -0.227757,0.105237 -0.0059,-0.0068 0.03465,-0.124003 0.09023,-0.260275 0.05557,-0.136254 0.166657,-0.354424 0.246878,-0.484803 0.08023,-0.130388 0.280329,-0.384722 0.444683,-0.565204 0.164359,-0.180481 0.413853,-0.406747 0.554434,-0.502812 0.140584,-0.09605 0.256032,-0.18585 0.256557,-0.199523 5.35e-4,-0.01365 -0.118135,-0.06213 -0.263703,-0.10767 -0.145556,-0.04556 -0.40496,-0.118333 -0.576436,-0.161747 -0.171481,-0.04341 -0.316508,-0.08441 -0.322281,-0.0911 -0.0058,-0.0067 0.06457,-0.06806 0.156335,-0.136336 0.09176,-0.06829 0.29188,-0.185694 0.444709,-0.260892 0.152821,-0.07519 0.473648,-0.195901 0.712935,-0.268225 0.239289,-0.07232 0.544673,-0.14303 0.678633,-0.157101 0.133973,-0.01413 0.250726,-0.03904 0.259477,-0.05547 0.0088,-0.01643 -0.11444,-0.04245 -0.273775,-0.05786 -0.1693,-0.01635 -0.448608,-0.0093 -0.672083,0.01698 -0.210313,0.02473 -0.505611,0.07828 -0.656211,0.119015 -0.150609,0.04073 -0.386614,0.12103 -0.524468,0.178452 -0.137856,0.05742 -0.341004,0.157001 -0.451445,0.221305 -0.110438,0.06431 -0.284047,0.182395 -0.38579,0.262435 -0.101747,0.08003 -0.259873,0.22438 -0.351402,0.320753 -0.16641,0.175224 -0.16641,0.175224 -0.04928,0.197859 0.06443,0.01251 0.252672,0.04837 0.418334,0.07981 0.165661,0.03144 0.380265,0.07686 0.4769,0.100886 0.09663,0.02405 0.175701,0.05973 0.175701,0.07931 0,0.01958 -0.02444,0.0356 -0.05432,0.0356 -0.02989,0 -0.209099,0.06005 -0.398262,0.133476 -0.189162,0.0734 -0.499804,0.220742 -0.690308,0.327401 -0.190506,0.106651 -0.506853,0.306514 -0.702996,0.444123 -0.196144,0.137602 -0.504069,0.37705 -0.684279,0.532094 -0.180213,0.155036 -0.399999,0.360375 -0.488416,0.456292 -0.103437,0.112207 -0.160753,0.152842 -0.160753,0.113961 0,-0.03322 0.03954,-0.267054 0.08788,-0.519601 0.05908,-0.308733 0.08923,-0.586344 0.09204,-0.847318 0.0039,-0.362827 -0.0025,-0.401978 -0.09625,-0.600241 -0.05551,-0.117293 -0.164639,-0.268659 -0.24411,-0.338631 -0.07904,-0.06959 -0.222113,-0.155704 -0.317934,-0.191351 -0.103805,-0.03862 -0.33388,-0.07206 -0.569309,-0.08276 -0.217885,-0.0099 -0.518088,0.0024 -0.669335,0.02766 -0.150841,0.02508 -0.3119,0.05577 -0.357917,0.06819 -0.08367,0.0226 -0.08367,0.0226 -0.01674,-0.06514 0.03681,-0.04824 0.184897,-0.190872 0.329073,-0.316949 0.144169,-0.126083 0.400196,-0.323264 0.568934,-0.43819 0.16874,-0.114937 0.557317,-0.365893 0.863509,-0.557704 0.306189,-0.191808 0.645041,-0.41868 0.753,-0.504161 0.107955,-0.08548 0.229174,-0.196661 0.269363,-0.247074 0.04019,-0.0504 0.08799,-0.137359 0.106244,-0.193231 0.01969,-0.06025 0.02189,-0.159635 0.0055,-0.244298 -0.01528,-0.07852 -0.07814,-0.241333 -0.139711,-0.361834 -0.06157,-0.120493 -0.225972,-0.351243 -0.365323,-0.512762 -0.139377,-0.16159 -0.342686,-0.362934 -0.451825,-0.447499 -0.109157,-0.08457 -0.213498,-0.16945 -0.231906,-0.18863 -0.01983,-0.02068 0.225454,-0.02582 0.602401,-0.01268 0.349729,0.01235 0.748819,0.04785 0.88687,0.07911 0.138058,0.03126 0.29902,0.06886 0.357712,0.08357 0.106703,0.02673 0.106703,0.02673 -0.0068,-0.27845 -0.0637,-0.170983 -0.137934,-0.467333 -0.168824,-0.673923 -0.03709,-0.248167 -0.04815,-0.459358 -0.03378,-0.645887 0.01168,-0.152437 0.04074,-0.353296 0.06449,-0.446366 0.04314,-0.169211 0.04314,-0.169211 0.120147,0.0055 0.04236,0.09605 0.141254,0.279461 0.219796,0.407549 0.07854,0.128082 0.246126,0.347408 0.372423,0.487382 0.126289,0.139975 0.329816,0.336786 0.452259,0.437358 0.122453,0.100569 0.355875,0.275488 0.518734,0.388698 0.162859,0.113215 0.476832,0.325559 0.697711,0.471883 0.220881,0.146328 0.533829,0.368584 0.695438,0.493906 0.16161,0.125319 0.39654,0.34023 0.522069,0.477568 0.125525,0.137343 0.270386,0.320251 0.321906,0.406471 0.05152,0.08623 0.100718,0.14857 0.109353,0.138562 0.0086,-0.01008 -0.03216,-0.136953 -0.09062,-0.282107 -0.05847,-0.145158 -0.189712,-0.390334 -0.291639,-0.544856 -0.101927,-0.154516 -0.269026,-0.369671 -0.371332,-0.478114 -0.102307,-0.108459 -0.274828,-0.267121 -0.383381,-0.352616 -0.108548,-0.08549 -0.210749,-0.196261 -0.227103,-0.246144 -0.01635,-0.04988 -0.05428,-0.227641 -0.08428,-0.395018 -0.03476,-0.19403 -0.05453,-0.494229 -0.05451,-0.828316 1.5e-5,-0.288195 0.02359,-0.70739 0.05237,-0.931543 0.02878,-0.224152 0.09892,-0.576804 0.15583,-0.783668 0.05693,-0.206866 0.150623,-0.460129 0.208237,-0.562807 0.104745,-0.18669 0.104745,-0.18669 0.130964,0.182045 0.01449,0.202805 0.06533,0.517203 0.113116,0.698657 0.04779,0.18146 0.149033,0.469017 0.224994,0.639021 0.07596,0.170005 0.2253,0.445492 0.331873,0.612198 0.106568,0.166704 0.315776,0.460915 0.464893,0.6538 0.14911,0.192886 0.566844,0.659283 0.928284,1.036437 0.36144,0.377153 0.872789,0.930703 1.13633,1.230109 0.263544,0.299408 0.564086,0.675376 0.667869,0.835485 0.103795,0.160106 0.201606,0.308573 0.217375,0.329921 0.01578,0.02135 0.01326,-0.0087 -0.0056,-0.0666 -0.01886,-0.05799 -0.06381,-0.171512 -0.09988,-0.252293 -0.03606,-0.08078 -0.146149,-0.282048 -0.244654,-0.447257 -0.0985,-0.16521 -0.306774,-0.468409 -0.462811,-0.673776 -0.156038,-0.205366 -0.577375,-0.683771 -0.936308,-1.063119 -0.35893,-0.379347 -0.744333,-0.801005 -0.856449,-0.937019 -0.113958,-0.138252 -0.22464,-0.315753 -0.250999,-0.402552 -0.03249,-0.106958 -0.0468,-0.330342 -0.04605,-0.718066 8.02e-4,-0.418076 0.01652,-0.627686 0.06109,-0.8151 0.03299,-0.138757 0.09856,-0.352726 0.145697,-0.475477 0.04714,-0.122735 0.09872,-0.22318 0.114611,-0.22318 0.01588,0 0.0289,0.09698 0.0289,0.21552 0,0.118544 0.02367,0.341233 0.05258,0.494882 0.03018,0.160366 0.136234,0.47775 0.248997,0.745134 0.108033,0.256176 0.283915,0.599597 0.390856,0.763162 0.106937,0.163564 0.313844,0.449377 0.459787,0.635142 0.145946,0.185762 0.575156,0.668378 0.953802,1.072472 0.378649,0.404098 0.821441,0.904276 0.983981,1.111506 0.162543,0.207228 0.375497,0.516512 0.473232,0.687294 0.09774,0.170782 0.222425,0.415313 0.277089,0.543401 0.05467,0.128082 0.130902,0.346416 0.169428,0.485179 0.03852,0.138757 0.08734,0.365824 0.108515,0.504586 0.02184,0.143208 0.02929,0.372018 0.01726,0.529186 -0.02039,0.266236 -0.01824,0.277757 0.05602,0.299376 0.04248,0.01251 0.142797,0.08756 0.222931,0.167117 0.08014,0.07955 0.166321,0.201898 0.191537,0.271886 0.02521,0.07 0.04585,0.180219 0.04585,0.244946 0,0.0727 0.01721,0.117699 0.04501,0.117699 0.02475,0 0.135003,-0.06747 0.244968,-0.149886 0.109968,-0.08245 0.253437,-0.226536 0.318807,-0.320217 0.06536,-0.09369 0.142219,-0.222731 0.170787,-0.286774 0.04578,-0.102651 0.05482,-0.107922 0.07616,-0.04447 0.01325,0.03958 0.01528,0.284118 0.0045,0.543401 -0.01403,0.336851 -0.04422,0.568752 -0.105506,0.81237 -0.04716,0.187522 -0.129422,0.452599 -0.182765,0.589058 -0.05335,0.136465 -0.168227,0.376028 -0.255283,0.532374 -0.08705,0.156352 -0.258478,0.397797 -0.380932,0.536559 -0.122453,0.138757 -0.287711,0.293756 -0.367237,0.344436 -0.14459,0.09214 -0.14459,0.09214 -0.118743,-0.03881 0.01418,-0.07202 0.02475,-0.248109 0.02342,-0.391295 -0.0017,-0.189711 -0.02465,-0.31607 -0.08427,-0.465771 -0.04499,-0.113004 -0.125448,-0.256063 -0.178809,-0.317945 -0.05335,-0.06187 -0.172308,-0.152745 -0.264343,-0.201943 -0.09204,-0.0492 -0.257692,-0.117861 -0.368133,-0.152599 -0.113443,-0.03568 -0.401517,-0.07265 -0.662183,-0.08494 -0.253762,-0.01202 -0.456435,-0.03241 -0.45039,-0.04541 0.006,-0.01299 0.06646,-0.154631 0.13427,-0.314739 0.07297,-0.172332 0.131822,-0.378212 0.144216,-0.504589 0.01791,-0.182526 0.0104,-0.228902 -0.05158,-0.319873 -0.04607,-0.06759 -0.14191,-0.131185 -0.262764,-0.174352 -0.151355,-0.05405 -0.306532,-0.06737 -0.759173,-0.06499 -0.333948,0.0017 -0.741718,0.03021 -0.987269,0.06893 -0.230085,0.03628 -0.568324,0.109786 -0.751646,0.163339 -0.183323,0.05355 -0.337897,0.102684 -0.3435,0.109181 -0.0056,0.0065 0.144388,0.0233 0.333313,0.03735 0.188924,0.01397 0.447969,0.05142 0.575653,0.08304 0.127691,0.03165 0.244334,0.07165 0.259222,0.08892 0.01497,0.01727 -0.02641,0.183487 -0.09176,0.369383 -0.06535,0.185896 -0.141394,0.463645 -0.169013,0.61722 -0.02761,0.153574 -0.04095,0.341282 -0.02964,0.417118 0.01123,0.07585 0.03848,0.165602 0.0604,0.199472 0.0219,0.03386 0.07478,0.08317 0.117496,0.109576 0.0585,0.03614 0.103716,0.03746 0.183118,0.0054 0.05799,-0.02345 0.149376,-0.09022 0.203068,-0.148392 0.09763,-0.105752 0.09763,-0.105752 0.07631,0.01074 -0.01169,0.06405 -0.0434,0.229973 -0.0704,0.368735 -0.027,0.138757 -0.04962,0.380268 -0.05026,0.536684 -0.0011,0.261498 0.0066,0.293253 0.09378,0.39452 0.06335,0.07347 0.144123,0.118301 0.242636,0.134678 0.08122,0.01349 0.219209,0.0084 0.306642,-0.01085 0.08742,-0.01958 0.158966,-0.02239 0.158966,-0.0064 0,0.01625 -0.06263,0.138171 -0.139196,0.271132 -0.08437,0.146538 -0.237416,0.332276 -0.388593,0.471608 -0.137169,0.126425 -0.38703,0.306102 -0.555241,0.399291 -0.168212,0.0932 -0.41614,0.20721 -0.550953,0.25338 -0.134815,0.04618 -0.353182,0.09333 -0.485269,0.104798 -0.240158,0.02086 -0.240158,0.02086 -0.06951,-0.116025 z m 3.209499,-5.654344 c 0.01122,-0.02133 -0.02915,-0.147968 -0.09006,-0.281403 -0.06091,-0.133427 -0.220356,-0.376068 -0.354332,-0.539193 -0.170749,-0.207896 -0.314888,-0.340037 -0.481986,-0.441875 -0.238384,-0.145288 -0.238384,-0.145288 -0.217284,-0.02292 0.01153,0.0673 0.06796,0.252903 0.125229,0.41245 0.06203,0.172826 0.165642,0.369441 0.256313,0.486403 0.08372,0.107988 0.211773,0.231572 0.284594,0.274662 0.07283,0.04307 0.195,0.09271 0.271502,0.110258 0.07649,0.01754 0.149501,0.03385 0.162222,0.03618 0.01278,0.0023 0.03245,-0.01316 0.04381,-0.03454 z"
         id="path14" /></g></g></svg> -->

<svg
   preserveAspectRatio="none"
   viewBox="0 0 32 33">
  <g
     transform="translate(-34.931775,-27.983059)">
    <path
       d="m 52.103994,59.874362 c 0.210575,-0.17241 0.527988,-0.506507 0.705352,-0.742424 0.177367,-0.235925 0.419014,-0.60678 0.536994,-0.824146 0.117976,-0.217344 0.214524,-0.441519 0.214524,-0.498122 0,-0.07546 -0.105231,-0.0702 -0.394225,0.01993 -0.216813,0.06745 -0.715242,0.147515 -1.107591,0.177815 -0.713362,0.05519 -0.713362,0.05519 -0.329283,-0.403034 0.211249,-0.251996 0.487011,-0.687935 0.612833,-0.968695 0.125852,-0.280727 0.286369,-0.746557 0.35671,-1.035103 0.09195,-0.377003 0.119098,-0.739712 0.09648,-1.288969 -0.02385,-0.579288 -0.0788,-0.886482 -0.227217,-1.268832 -0.107655,-0.277487 -0.333866,-0.681876 -0.502694,-0.898685 -0.168797,-0.216795 -0.501301,-0.516 -0.738868,-0.66488 -0.237581,-0.148889 -0.614155,-0.334049 -0.836877,-0.411491 -0.222692,-0.07743 -0.662005,-0.164349 -0.976176,-0.19316 -0.381857,-0.03497 -0.768303,-0.0064 -1.165692,0.08646 -0.32694,0.07631 -0.81352,0.260186 -1.081254,0.408466 -0.267723,0.148294 -0.497702,0.256796 -0.511028,0.241019 -0.01324,-0.01557 0.07775,-0.283998 0.202453,-0.596095 0.124684,-0.312055 0.373935,-0.811719 0.55393,-1.110319 0.180015,-0.298622 0.628985,-0.88111 0.997753,-1.294459 0.368779,-0.413346 0.928579,-0.931552 1.244006,-1.151564 0.315434,-0.219979 0.574469,-0.425643 0.575647,-0.456958 0.0012,-0.03126 -0.265064,-0.142293 -0.591681,-0.246591 -0.32659,-0.104344 -0.908625,-0.271012 -1.293372,-0.370441 -0.384759,-0.09942 -0.710162,-0.19332 -0.723115,-0.208642 -0.01301,-0.01534 0.144878,-0.155874 0.350775,-0.312243 0.205885,-0.156401 0.654903,-0.425286 0.997811,-0.597508 0.342891,-0.172204 1.062744,-0.448662 1.599641,-0.614302 0.536903,-0.165631 1.222105,-0.327574 1.522677,-0.359801 0.3006,-0.03236 0.562564,-0.08941 0.582199,-0.12704 0.01975,-0.03763 -0.256774,-0.09722 -0.61428,-0.132514 -0.379866,-0.03744 -1.00656,-0.0213 -1.50798,0.03889 -0.471888,0.05664 -1.13446,0.179281 -1.472367,0.272574 -0.337928,0.09328 -0.867462,0.277189 -1.17677,0.4087 -0.309313,0.131506 -0.765125,0.359571 -1.012926,0.506843 -0.247794,0.147286 -0.637327,0.41773 -0.865612,0.601042 -0.228294,0.183288 -0.583088,0.513886 -0.788455,0.734604 -0.373381,0.401307 -0.373381,0.401307 -0.110572,0.453147 0.144565,0.02865 0.566931,0.110779 0.938633,0.182784 0.371701,0.07201 0.853216,0.176029 1.07004,0.231054 0.216813,0.05508 0.394227,0.136797 0.394227,0.18164 0,0.04484 -0.05484,0.08153 -0.121879,0.08153 -0.06707,0 -0.469164,0.13753 -0.893597,0.305693 -0.42443,0.168105 -1.12143,0.505555 -1.548872,0.74983 -0.427446,0.244258 -1.137247,0.701994 -1.57734,1.017153 -0.440097,0.315143 -1.131,0.863538 -1.535345,1.218628 -0.404351,0.355071 -0.897494,0.825348 -1.095879,1.045022 -0.232085,0.256982 -0.360688,0.350046 -0.360688,0.260999 0,-0.07608 0.08872,-0.61162 0.19718,-1.190016 0.13256,-0.707075 0.200209,-1.342874 0.206514,-1.940569 0.0088,-0.830964 -0.0056,-0.92063 -0.21596,-1.374702 -0.12455,-0.26863 -0.369407,-0.615296 -0.547719,-0.775549 -0.177346,-0.159379 -0.498364,-0.356601 -0.713362,-0.438242 -0.232911,-0.08845 -0.74914,-0.165035 -1.277381,-0.189541 -0.488878,-0.02267 -1.162455,0.0055 -1.501814,0.06335 -0.338448,0.05744 -0.699823,0.127727 -0.803073,0.156172 -0.187734,0.05176 -0.187734,0.05176 -0.03756,-0.149187 0.08259,-0.110482 0.414861,-0.437145 0.738354,-0.725892 0.323478,-0.288762 0.897936,-0.740356 1.27654,-1.003565 0.378609,-0.263234 1.250475,-0.837986 1.93749,-1.277281 0.687009,-0.439288 1.447305,-0.958882 1.689537,-1.154654 0.242223,-0.195771 0.514207,-0.450403 0.60438,-0.565862 0.09018,-0.115428 0.197427,-0.314586 0.238384,-0.442547 0.04418,-0.137987 0.04912,-0.365604 0.01234,-0.559503 -0.03428,-0.17983 -0.175326,-0.552713 -0.313475,-0.82869 -0.138147,-0.275959 -0.507023,-0.804434 -0.81969,-1.174353 -0.312726,-0.370081 -0.768899,-0.831209 -1.013778,-1.024884 -0.24492,-0.193687 -0.479034,-0.388083 -0.520337,-0.43201 -0.04449,-0.04736 0.50586,-0.05913 1.351631,-0.02904 0.784701,0.02828 1.680156,0.109588 1.989906,0.181181 0.309767,0.07159 0.670924,0.157707 0.802613,0.191396 0.239414,0.06122 0.239414,0.06122 -0.01526,-0.63772 -0.142926,-0.391593 -0.309488,-1.070309 -0.378797,-1.543451 -0.08322,-0.568365 -0.108036,-1.052045 -0.07579,-1.479243 0.02621,-0.349118 0.09141,-0.809136 0.144699,-1.022289 0.0968,-0.387536 0.0968,-0.387536 0.269579,0.0126 0.09504,0.219979 0.316937,0.640036 0.493165,0.933389 0.176223,0.29334 0.552243,0.795651 0.83562,1.116226 0.28336,0.320578 0.740022,0.771324 1.014752,1.001659 0.274753,0.230328 0.798491,0.630937 1.163904,0.890216 0.365414,0.25929 1.069888,0.745611 1.565483,1.080729 0.495599,0.335128 1.197774,0.84415 1.560382,1.131168 0.362611,0.287012 0.889733,0.779212 1.171387,1.09375 0.281646,0.31455 0.606676,0.733455 0.722274,0.93092 0.115597,0.197488 0.225985,0.340262 0.24536,0.317342 0.0193,-0.02309 -0.07216,-0.313657 -0.203328,-0.646096 -0.131192,-0.332448 -0.425665,-0.893962 -0.654362,-1.247856 -0.228698,-0.35388 -0.603625,-0.846639 -0.833173,-1.095 -0.22955,-0.248398 -0.616643,-0.611774 -0.860207,-0.807579 -0.243554,-0.195793 -0.472866,-0.449486 -0.50956,-0.563731 -0.03669,-0.114238 -0.121791,-0.521355 -0.189103,-0.90469 -0.07799,-0.444377 -0.122351,-1.131907 -0.122306,-1.89705 3.3e-5,-0.660038 0.05293,-1.620099 0.117504,-2.133466 0.06457,-0.513364 0.221951,-1.321025 0.349643,-1.794795 0.127736,-0.473775 0.337958,-1.05381 0.467229,-1.288968 0.235021,-0.427567 0.235021,-0.427567 0.29385,0.416928 0.03251,0.464474 0.146583,1.184524 0.253802,1.600099 0.107229,0.415589 0.334392,1.074166 0.504829,1.463517 0.170434,0.389354 0.505514,1.020288 0.744636,1.402087 0.239111,0.381793 0.70852,1.05561 1.0431,1.497365 0.334564,0.441757 1.27185,1.509922 2.082828,2.373699 0.810978,0.863774 1.958312,2.131542 2.54963,2.817256 0.591324,0.685719 1.265662,1.54678 1.498524,1.913469 0.232889,0.366683 0.452352,0.706709 0.487733,0.755602 0.03541,0.0489 0.02975,-0.01993 -0.01257,-0.152531 -0.04232,-0.132812 -0.143173,-0.392805 -0.224104,-0.577814 -0.08091,-0.185006 -0.327921,-0.64596 -0.548941,-1.02433 -0.221008,-0.378372 -0.688321,-1.072773 -1.038427,-1.543115 -0.350109,-0.470339 -1.29548,-1.566006 -2.100832,-2.434808 -0.805346,-0.868799 -1.67009,-1.834501 -1.92165,-2.146007 -0.255692,-0.316631 -0.504033,-0.723153 -0.563176,-0.921944 -0.0729,-0.244961 -0.105007,-0.756566 -0.103324,-1.644551 0.0018,-0.957498 0.03707,-1.437557 0.13707,-1.866782 0.07402,-0.317788 0.221143,-0.80783 0.326906,-1.088961 0.10577,-0.281094 0.221502,-0.511138 0.257157,-0.511138 0.03563,0 0.06484,0.222109 0.06484,0.493595 0,0.271495 0.05311,0.781509 0.117976,1.133403 0.06772,0.367278 0.305674,1.094167 0.558685,1.706543 0.242398,0.586707 0.637031,1.373227 0.876979,1.747831 0.239939,0.374602 0.704185,1.029186 1.031643,1.454634 0.327465,0.425441 1.290501,1.530752 2.140084,2.456228 0.84959,0.925485 1.8431,2.071018 2.207798,2.545626 0.364704,0.474604 0.842518,1.182941 1.06181,1.574075 0.219303,0.391133 0.499064,0.95117 0.621715,1.244524 0.122666,0.293339 0.293711,0.793379 0.380153,1.11118 0.08643,0.317789 0.195968,0.837829 0.243479,1.155628 0.049,0.327982 0.06572,0.852014 0.03873,1.211968 -0.04575,0.609747 -0.04093,0.636133 0.125695,0.685646 0.09531,0.02865 0.320399,0.200534 0.500199,0.382739 0.179813,0.18219 0.373181,0.462397 0.429759,0.622687 0.05656,0.160318 0.102876,0.412747 0.102876,0.560988 0,0.166501 0.03862,0.26956 0.100991,0.26956 0.05553,0 0.302911,-0.154523 0.549644,-0.343277 0.24674,-0.188831 0.568647,-0.518824 0.71532,-0.733376 0.146651,-0.214574 0.319103,-0.51011 0.383202,-0.656784 0.102718,-0.235097 0.123002,-0.247169 0.170883,-0.101848 0.02973,0.09065 0.03428,0.650701 0.0101,1.244524 -0.03148,0.771473 -0.09922,1.302584 -0.236728,1.86053 -0.105815,0.429472 -0.290389,1.036565 -0.410077,1.34909 -0.119704,0.312539 -0.377458,0.861198 -0.572789,1.219269 -0.195318,0.358085 -0.579958,0.911054 -0.854713,1.228854 -0.274752,0.317788 -0.645548,0.672774 -0.823984,0.788844 -0.324422,0.211024 -0.324422,0.211024 -0.266428,-0.08888 0.03182,-0.164944 0.05553,-0.568232 0.05255,-0.896164 -0.0038,-0.434485 -0.05531,-0.723879 -0.18908,-1.066731 -0.100946,-0.258808 -0.281473,-0.586448 -0.401201,-0.728174 -0.119704,-0.141697 -0.386614,-0.349824 -0.593117,-0.462499 -0.206514,-0.112681 -0.578194,-0.269932 -0.825995,-0.34949 -0.254537,-0.08172 -0.9009,-0.166387 -1.485767,-0.194534 -0.569376,-0.02753 -1.024121,-0.07423 -1.010558,-0.104 0.01346,-0.02975 0.149119,-0.354144 0.301267,-0.720831 0.163726,-0.394683 0.295774,-0.8662 0.323583,-1.155635 0.04019,-0.41803 0.02334,-0.524242 -0.115732,-0.732589 -0.103369,-0.154798 -0.318409,-0.300446 -0.589574,-0.399309 -0.339601,-0.123788 -0.687778,-0.154294 -1.703387,-0.148844 -0.749293,0.0039 -1.664223,0.06919 -2.215176,0.157867 -0.516251,0.08309 -1.275171,0.251438 -1.686498,0.374087 -0.411329,0.122643 -0.758153,0.235172 -0.770725,0.250052 -0.01257,0.01489 0.323969,0.05336 0.747868,0.08554 0.423896,0.032 1.005126,0.117765 1.291616,0.190182 0.286505,0.07249 0.548222,0.164097 0.581627,0.203649 0.03359,0.03955 -0.05926,0.420231 -0.205886,0.845979 -0.146628,0.425749 -0.317251,1.061863 -0.379221,1.413588 -0.06195,0.351723 -0.09188,0.781621 -0.0665,0.955304 0.0252,0.173716 0.08634,0.37927 0.135522,0.456841 0.04914,0.07755 0.167787,0.19048 0.263631,0.250956 0.131259,0.08277 0.232712,0.08579 0.410869,0.01237 0.130115,-0.05371 0.335161,-0.206627 0.455632,-0.339855 0.219056,-0.242198 0.219056,-0.242198 0.17122,0.0246 -0.02623,0.146691 -0.09738,0.526696 -0.15796,0.844495 -0.06058,0.317789 -0.111334,0.870909 -0.11277,1.229141 -0.0025,0.598895 0.01481,0.671622 0.210418,0.903549 0.142141,0.168264 0.323375,0.270939 0.544412,0.308446 0.182237,0.0309 0.491848,0.01924 0.688025,-0.02485 0.196148,-0.04484 0.356679,-0.05128 0.356679,-0.01466 0,0.03722 -0.140526,0.316446 -0.31232,0.62096 -0.189304,0.335609 -0.5327,0.760995 -0.871902,1.0801 -0.307771,0.289545 -0.868395,0.70105 -1.245816,0.914476 -0.377425,0.213451 -0.933711,0.474563 -1.236196,0.580303 -0.30249,0.105764 -0.792449,0.213749 -1.088818,0.240014 C 51.72161,60.1882 51.72161,60.1882 52.1045,59.874694 Z m 7.201283,-12.949858 c 0.02518,-0.04885 -0.0654,-0.338884 -0.202071,-0.644483 -0.136667,-0.305581 -0.494422,-0.86129 -0.795029,-1.234887 -0.383117,-0.476133 -0.706527,-0.778769 -1.081452,-1.012004 -0.534872,-0.332745 -0.534872,-0.332745 -0.487529,-0.05249 0.02587,0.154134 0.152485,0.579211 0.280982,0.944613 0.139179,0.395815 0.371657,0.846112 0.5751,1.113984 0.187845,0.24732 0.475163,0.530358 0.638555,0.629045 0.163411,0.09864 0.437529,0.212329 0.60918,0.252518 0.171623,0.04017 0.335441,0.07753 0.363984,0.08286 0.02867,0.0053 0.07281,-0.03014 0.0983,-0.0791 z"
       vector-effect="non-scaling-stroke" />
  </g>
</svg>
