<!-- <?xml version="1.0" encoding="UTF-8" standalone="no"?>

<svg
   width="225"
   height="205"
   viewBox="0 0 56.25 51.25"
   version="1.1"
   id="svg1"
   xml:space="preserve"
   xmlns="http://www.w3.org/2000/svg"
   xmlns:svg="http://www.w3.org/2000/svg"><defs
     id="defs1" /><g
     id="layer1"
     transform="translate(-22.083082,-21.252682)"><g
       id="g8"
       transform="matrix(2.2437404,0,0,2.2902494,-61.806431,-130.32774)"><path
         id="path6"
         style="opacity:0.98;stroke-width:1.01671;stroke-linecap:round;stroke-linejoin:round;stroke-miterlimit:1;paint-order:stroke markers fill"
         d="M 49.697554,88.188846 41.005266,82.444405 A 0.65002985,0.65002985 54.496003 0 1 40.73424,82.064496 L 37.746772,70.485615 c -0.03449,-0.133693 0.03086,-0.303893 0.146771,-0.378906 11.511757,-7.449652 22.043757,-1.269913 24.059507,0.02324 0.116169,0.07453 0.181099,0.244687 0.146185,0.378271 l -3.020457,11.556477 a 0.65309071,0.65309071 125.59405 0 1 -0.271787,0.379711 l -8.692299,5.744441 a 0.37829155,0.37829155 1.5912124e-5 0 1 -0.417138,0 z" /><path
         id="path7"
         style="display:inline;opacity:0.98;fill:#ffffff;stroke-width:1.01671;stroke-linecap:round;stroke-linejoin:round;stroke-miterlimit:1;paint-order:stroke markers fill"
         d="m 49.906123,67.699242 c 3.783516,0 7.568416,1.0507 11.007237,3.1503 L 58.128307,81.502746 49.906123,86.93624 41.683939,81.502746 38.898885,70.849542 c 3.438822,-2.0996 7.223722,-3.1503 11.007238,-3.1503 z" /><path
         id="path8"
         style="opacity:0.98;fill:#000000;stroke-width:0.929054;stroke-linecap:round;stroke-linejoin:round;stroke-miterlimit:1;paint-order:stroke markers fill"
         d="m 50.15611,67.641628 c 2.977695,0.05347 5.949519,1.062233 8.668731,3.024743 0.111957,0.0808 0.178195,0.257108 0.149179,0.392096 l -2.20258,10.24677 a 0.7044272,0.7044272 121.67102 0 1 -0.247402,0.401032 l -6.423051,5.162289 a 0.31105634,0.31105634 -180 0 1 -0.389728,0 l -6.423052,-5.162289 a 0.70442692,0.70442692 58.328982 0 1 -0.247402,-0.401032 l -2.202578,-10.24677 c -0.02902,-0.134988 0.03722,-0.311295 0.149179,-0.392097 2.719211,-1.96251 5.691036,-2.971275 8.668731,-3.024742 0.138047,-0.0025 0.361925,-0.0025 0.499973,0 z"
         transform="matrix(1.0832912,0,0,1,-4.1567418,0)" /><path
         style="fill:#ffffff;stroke-width:0.0360416"
         d="m 50.428587,82.690792 c 0.09385,-0.07528 0.235316,-0.221158 0.314364,-0.324167 0.07905,-0.103013 0.186748,-0.264941 0.23933,-0.35985 0.05258,-0.0949 0.09561,-0.192782 0.09561,-0.217497 0,-0.03295 -0.0469,-0.03065 -0.1757,0.0087 -0.09663,0.02945 -0.318772,0.06441 -0.493636,0.07764 -0.317934,0.0241 -0.317934,0.0241 -0.146756,-0.175978 0.09415,-0.11003 0.217053,-0.300376 0.27313,-0.422965 0.05609,-0.122575 0.12763,-0.325972 0.15898,-0.451961 0.04098,-0.164612 0.05308,-0.322983 0.043,-0.562807 -0.01063,-0.252937 -0.03512,-0.387068 -0.101267,-0.554015 -0.04798,-0.12116 -0.148799,-0.29773 -0.224043,-0.392396 -0.07523,-0.09466 -0.223422,-0.225303 -0.329302,-0.290309 -0.105886,-0.06501 -0.273719,-0.145857 -0.372983,-0.179671 -0.09925,-0.03381 -0.295045,-0.07176 -0.435066,-0.08434 -0.170188,-0.01527 -0.342421,-0.0028 -0.519531,0.03775 -0.145712,0.03332 -0.362573,0.113606 -0.481898,0.17835 -0.11932,0.06475 -0.221818,0.112126 -0.227757,0.105237 -0.0059,-0.0068 0.03465,-0.124003 0.09023,-0.260275 0.05557,-0.136254 0.166657,-0.354424 0.246878,-0.484803 0.08023,-0.130388 0.280329,-0.384722 0.444683,-0.565204 0.164359,-0.180481 0.413853,-0.406747 0.554434,-0.502812 0.140584,-0.09605 0.256032,-0.18585 0.256557,-0.199523 5.35e-4,-0.01365 -0.118135,-0.06213 -0.263703,-0.10767 -0.145556,-0.04556 -0.40496,-0.118333 -0.576436,-0.161747 -0.171481,-0.04341 -0.316508,-0.08441 -0.322281,-0.0911 -0.0058,-0.0067 0.06457,-0.06806 0.156335,-0.136336 0.09176,-0.06829 0.29188,-0.185694 0.444709,-0.260892 0.152821,-0.07519 0.473648,-0.195901 0.712935,-0.268225 0.239289,-0.07232 0.544673,-0.14303 0.678633,-0.157101 0.133973,-0.01413 0.250726,-0.03904 0.259477,-0.05547 0.0088,-0.01643 -0.11444,-0.04245 -0.273775,-0.05786 -0.1693,-0.01635 -0.448608,-0.0093 -0.672083,0.01698 -0.210313,0.02473 -0.505611,0.07828 -0.656211,0.119015 -0.150609,0.04073 -0.386614,0.12103 -0.524468,0.178452 -0.137856,0.05742 -0.341004,0.157001 -0.451445,0.221305 -0.110438,0.06431 -0.284047,0.182395 -0.38579,0.262435 -0.101747,0.08003 -0.259873,0.22438 -0.351402,0.320753 -0.16641,0.175224 -0.16641,0.175224 -0.04928,0.197859 0.06443,0.01251 0.252672,0.04837 0.418334,0.07981 0.165661,0.03144 0.380265,0.07686 0.4769,0.100886 0.09663,0.02405 0.175701,0.05973 0.175701,0.07931 0,0.01958 -0.02444,0.0356 -0.05432,0.0356 -0.02989,0 -0.209099,0.06005 -0.398262,0.133476 -0.189162,0.0734 -0.499804,0.220742 -0.690308,0.327401 -0.190506,0.106651 -0.506853,0.306514 -0.702996,0.444123 -0.196144,0.137602 -0.504069,0.37705 -0.684279,0.532094 -0.180213,0.155036 -0.399999,0.360375 -0.488416,0.456292 -0.103437,0.112207 -0.160753,0.152842 -0.160753,0.113961 0,-0.03322 0.03954,-0.267054 0.08788,-0.519601 0.05908,-0.308733 0.08923,-0.586344 0.09204,-0.847318 0.0039,-0.362827 -0.0025,-0.401978 -0.09625,-0.600241 -0.05551,-0.117293 -0.164639,-0.268659 -0.24411,-0.338631 -0.07904,-0.06959 -0.222113,-0.155704 -0.317934,-0.191351 -0.103805,-0.03862 -0.33388,-0.07206 -0.569309,-0.08276 -0.217885,-0.0099 -0.518088,0.0024 -0.669335,0.02766 -0.150841,0.02508 -0.3119,0.05577 -0.357917,0.06819 -0.08367,0.0226 -0.08367,0.0226 -0.01674,-0.06514 0.03681,-0.04824 0.184897,-0.190872 0.329073,-0.316949 0.144169,-0.126083 0.400196,-0.323264 0.568934,-0.43819 0.16874,-0.114937 0.557317,-0.365893 0.863509,-0.557704 0.306189,-0.191808 0.645041,-0.41868 0.753,-0.504161 0.107955,-0.08548 0.229174,-0.196661 0.269363,-0.247074 0.04019,-0.0504 0.08799,-0.137359 0.106244,-0.193231 0.01969,-0.06025 0.02189,-0.159635 0.0055,-0.244298 -0.01528,-0.07852 -0.07814,-0.241333 -0.139711,-0.361834 -0.06157,-0.120493 -0.225972,-0.351243 -0.365323,-0.512762 -0.139377,-0.16159 -0.342686,-0.362934 -0.451825,-0.447499 -0.109157,-0.08457 -0.213498,-0.16945 -0.231906,-0.18863 -0.01983,-0.02068 0.225454,-0.02582 0.602401,-0.01268 0.349729,0.01235 0.748819,0.04785 0.88687,0.07911 0.138058,0.03126 0.29902,0.06886 0.357712,0.08357 0.106703,0.02673 0.106703,0.02673 -0.0068,-0.27845 -0.0637,-0.170983 -0.137934,-0.467333 -0.168824,-0.673923 -0.03709,-0.248167 -0.04815,-0.459358 -0.03378,-0.645887 0.01168,-0.152437 0.04074,-0.353296 0.06449,-0.446366 0.04314,-0.169211 0.04314,-0.169211 0.120147,0.0055 0.04236,0.09605 0.141254,0.279461 0.219796,0.407549 0.07854,0.128082 0.246126,0.347408 0.372423,0.487382 0.126289,0.139975 0.329816,0.336786 0.452259,0.437358 0.122453,0.100569 0.355875,0.275488 0.518734,0.388698 0.162859,0.113215 0.476832,0.325559 0.697711,0.471883 0.220881,0.146328 0.533829,0.368584 0.695438,0.493906 0.16161,0.125319 0.39654,0.34023 0.522069,0.477568 0.125525,0.137343 0.270386,0.320251 0.321906,0.406471 0.05152,0.08623 0.100718,0.14857 0.109353,0.138562 0.0086,-0.01008 -0.03216,-0.136953 -0.09062,-0.282107 -0.05847,-0.145158 -0.189712,-0.390334 -0.291639,-0.544856 -0.101927,-0.154516 -0.269026,-0.369671 -0.371332,-0.478114 -0.102307,-0.108459 -0.274828,-0.267121 -0.383381,-0.352616 -0.108548,-0.08549 -0.210749,-0.196261 -0.227103,-0.246144 -0.01635,-0.04988 -0.05428,-0.227641 -0.08428,-0.395018 -0.03476,-0.19403 -0.05453,-0.494229 -0.05451,-0.828316 1.5e-5,-0.288195 0.02359,-0.70739 0.05237,-0.931543 0.02878,-0.224152 0.09892,-0.576804 0.15583,-0.783668 0.05693,-0.206866 0.150623,-0.460129 0.208237,-0.562807 0.104745,-0.18669 0.104745,-0.18669 0.130964,0.182045 0.01449,0.202805 0.06533,0.517203 0.113116,0.698657 0.04779,0.18146 0.149033,0.469017 0.224994,0.639021 0.07596,0.170005 0.2253,0.445492 0.331873,0.612198 0.106568,0.166704 0.315776,0.460915 0.464893,0.6538 0.14911,0.192886 0.566844,0.659283 0.928284,1.036437 0.36144,0.377153 0.872789,0.930703 1.13633,1.230109 0.263544,0.299408 0.564086,0.675376 0.667869,0.835485 0.103795,0.160106 0.201606,0.308573 0.217375,0.329921 0.01578,0.02135 0.01326,-0.0087 -0.0056,-0.0666 -0.01886,-0.05799 -0.06381,-0.171512 -0.09988,-0.252293 -0.03606,-0.08078 -0.146149,-0.282048 -0.244654,-0.447257 -0.0985,-0.16521 -0.306774,-0.468409 -0.462811,-0.673776 -0.156038,-0.205366 -0.577375,-0.683771 -0.936308,-1.063119 -0.35893,-0.379347 -0.744333,-0.801005 -0.856449,-0.937019 -0.113958,-0.138252 -0.22464,-0.315753 -0.250999,-0.402552 -0.03249,-0.106958 -0.0468,-0.330342 -0.04605,-0.718066 8.02e-4,-0.418076 0.01652,-0.627686 0.06109,-0.8151 0.03299,-0.138757 0.09856,-0.352726 0.145697,-0.475477 0.04714,-0.122735 0.09872,-0.22318 0.114611,-0.22318 0.01588,0 0.0289,0.09698 0.0289,0.21552 0,0.118544 0.02367,0.341233 0.05258,0.494882 0.03018,0.160366 0.136234,0.47775 0.248997,0.745134 0.108033,0.256176 0.283915,0.599597 0.390856,0.763162 0.106937,0.163564 0.313844,0.449377 0.459787,0.635142 0.145946,0.185762 0.575156,0.668378 0.953802,1.072472 0.378649,0.404098 0.821441,0.904276 0.983981,1.111506 0.162543,0.207228 0.375497,0.516512 0.473232,0.687294 0.09774,0.170782 0.222425,0.415313 0.277089,0.543401 0.05467,0.128082 0.130902,0.346416 0.169428,0.485179 0.03852,0.138757 0.08734,0.365824 0.108515,0.504586 0.02184,0.143208 0.02929,0.372018 0.01726,0.529186 -0.02039,0.266236 -0.01824,0.277757 0.05602,0.299376 0.04248,0.01251 0.142797,0.08756 0.222931,0.167117 0.08014,0.07955 0.166321,0.201898 0.191537,0.271886 0.02521,0.07 0.04585,0.180219 0.04585,0.244946 0,0.0727 0.01721,0.117699 0.04501,0.117699 0.02475,0 0.135003,-0.06747 0.244968,-0.149886 0.109968,-0.08245 0.253437,-0.226536 0.318807,-0.320217 0.06536,-0.09369 0.142219,-0.222731 0.170787,-0.286774 0.04578,-0.102651 0.05482,-0.107922 0.07616,-0.04447 0.01325,0.03958 0.01528,0.284118 0.0045,0.543401 -0.01403,0.336851 -0.04422,0.568752 -0.105506,0.81237 -0.04716,0.187522 -0.129422,0.452599 -0.182765,0.589058 -0.05335,0.136465 -0.168227,0.376028 -0.255283,0.532374 -0.08705,0.156352 -0.258478,0.397797 -0.380932,0.536559 -0.122453,0.138757 -0.287711,0.293756 -0.367237,0.344436 -0.14459,0.09214 -0.14459,0.09214 -0.118743,-0.03881 0.01418,-0.07202 0.02475,-0.248109 0.02342,-0.391295 -0.0017,-0.189711 -0.02465,-0.31607 -0.08427,-0.465771 -0.04499,-0.113004 -0.125448,-0.256063 -0.178809,-0.317945 -0.05335,-0.06187 -0.172308,-0.152745 -0.264343,-0.201943 -0.09204,-0.0492 -0.257692,-0.117861 -0.368133,-0.152599 -0.113443,-0.03568 -0.401517,-0.07265 -0.662183,-0.08494 -0.253762,-0.01202 -0.456435,-0.03241 -0.45039,-0.04541 0.006,-0.01299 0.06646,-0.154631 0.13427,-0.314739 0.07297,-0.172332 0.131822,-0.378212 0.144216,-0.504589 0.01791,-0.182526 0.0104,-0.228902 -0.05158,-0.319873 -0.04607,-0.06759 -0.14191,-0.131185 -0.262764,-0.174352 -0.151355,-0.05405 -0.306532,-0.06737 -0.759173,-0.06499 -0.333948,0.0017 -0.741718,0.03021 -0.987269,0.06893 -0.230085,0.03628 -0.568324,0.109786 -0.751646,0.163339 -0.183323,0.05355 -0.337897,0.102684 -0.3435,0.109181 -0.0056,0.0065 0.144388,0.0233 0.333313,0.03735 0.188924,0.01397 0.447969,0.05142 0.575653,0.08304 0.127691,0.03165 0.244334,0.07165 0.259222,0.08892 0.01497,0.01727 -0.02641,0.183487 -0.09176,0.369383 -0.06535,0.185896 -0.141394,0.463645 -0.169013,0.61722 -0.02761,0.153574 -0.04095,0.341282 -0.02964,0.417118 0.01123,0.07585 0.03848,0.165602 0.0604,0.199472 0.0219,0.03386 0.07478,0.08317 0.117496,0.109576 0.0585,0.03614 0.103716,0.03746 0.183118,0.0054 0.05799,-0.02345 0.149376,-0.09022 0.203068,-0.148392 0.09763,-0.105752 0.09763,-0.105752 0.07631,0.01074 -0.01169,0.06405 -0.0434,0.229973 -0.0704,0.368735 -0.027,0.138757 -0.04962,0.380268 -0.05026,0.536684 -0.0011,0.261498 0.0066,0.293253 0.09378,0.39452 0.06335,0.07347 0.144123,0.118301 0.242636,0.134678 0.08122,0.01349 0.219209,0.0084 0.306642,-0.01085 0.08742,-0.01958 0.158966,-0.02239 0.158966,-0.0064 0,0.01625 -0.06263,0.138171 -0.139196,0.271132 -0.08437,0.146538 -0.237416,0.332276 -0.388593,0.471608 -0.137169,0.126425 -0.38703,0.306102 -0.555241,0.399291 -0.168212,0.0932 -0.41614,0.20721 -0.550953,0.25338 -0.134815,0.04618 -0.353182,0.09333 -0.485269,0.104798 -0.240158,0.02086 -0.240158,0.02086 -0.06951,-0.116025 z m 3.209499,-5.654344 c 0.01122,-0.02133 -0.02915,-0.147968 -0.09006,-0.281403 -0.06091,-0.133427 -0.220356,-0.376068 -0.354332,-0.539193 -0.170749,-0.207896 -0.314888,-0.340037 -0.481986,-0.441875 -0.238384,-0.145288 -0.238384,-0.145288 -0.217284,-0.02292 0.01153,0.0673 0.06796,0.252903 0.125229,0.41245 0.06203,0.172826 0.165642,0.369441 0.256313,0.486403 0.08372,0.107988 0.211773,0.231572 0.284594,0.274662 0.07283,0.04307 0.195,0.09271 0.271502,0.110258 0.07649,0.01754 0.149501,0.03385 0.162222,0.03618 0.01278,0.0023 0.03245,-0.01316 0.04381,-0.03454 z"
         id="path14" /></g></g></svg> -->

<svg
  preserveAspectRatio="none"
  viewBox="0 0 56.25 51.25"
>
  <g
    transform="translate(-22.083082,-21.252682)"
  >
    <g
      transform="matrix(2.2437404,0,0,2.2902494,-61.806431,-130.32774)"
    >
      <path
        d="M 49.697554,88.188846 41.005266,82.444405 A 0.65002985,0.65002985 54.496003 0 1 40.73424,82.064496 L 37.746772,70.485615 c -0.03449,-0.133693 0.03086,-0.303893 0.146771,-0.378906 11.511757,-7.449652 22.043757,-1.269913 24.059507,0.02324 0.116169,0.07453 0.181099,0.244687 0.146185,0.378271 l -3.020457,11.556477 a 0.65309071,0.65309071 125.59405 0 1 -0.271787,0.379711 l -8.692299,5.744441 a 0.37829155,0.37829155 1.5912124e-5 0 1 -0.417138,0 z"
        vector-effect="non-scaling-stroke"
      />
      <path
        d="m 49.906123,67.699242 c 3.783516,0 7.568416,1.0507 11.007237,3.1503 L 58.128307,81.502746 49.906123,86.93624 41.683939,81.502746 38.898885,70.849542 c 3.438822,-2.0996 7.223722,-3.1503 11.007238,-3.1503 z"
        vector-effect="non-scaling-stroke"
      />
      <path
        d="m 50.15611,67.641628 c 2.977695,0.05347 5.949519,1.062233 8.668731,3.024743 0.111957,0.0808 0.178195,0.257108 0.149179,0.392096 l -2.20258,10.24677 a 0.7044272,0.7044272 121.67102 0 1 -0.247402,0.401032 l -6.423051,5.162289 a 0.31105634,0.31105634 -180 0 1 -0.389728,0 l -6.423052,-5.162289 a 0.70442692,0.70442692 58.328982 0 1 -0.247402,-0.401032 l -2.202578,-10.24677 c -0.02902,-0.134988 0.03722,-0.311295 0.149179,-0.392097 2.719211,-1.96251 5.691036,-2.971275 8.668731,-3.024742 0.138047,-0.0025 0.361925,-0.0025 0.499973,0 z"
        transform="matrix(1.0832912,0,0,1,-4.1567418,0)"
        vector-effect="non-scaling-stroke"
      />
      <path
        d="m 50.428587,82.690792 c 0.09385,-0.07528 0.235316,-0.221158 0.314364,-0.324167 0.07905,-0.103013 0.186748,-0.264941 0.23933,-0.35985 0.05258,-0.0949 0.09561,-0.192782 0.09561,-0.217497 0,-0.03295 -0.0469,-0.03065 -0.1757,0.0087 -0.09663,0.02945 -0.318772,0.06441 -0.493636,0.07764 -0.317934,0.0241 -0.317934,0.0241 -0.146756,-0.175978 0.09415,-0.11003 0.217053,-0.300376 0.27313,-0.422965 0.05609,-0.122575 0.12763,-0.325972 0.15898,-0.451961 0.04098,-0.164612 0.05308,-0.322983 0.043,-0.562807 -0.01063,-0.252937 -0.03512,-0.387068 -0.101267,-0.554015 -0.04798,-0.12116 -0.148799,-0.29773 -0.224043,-0.392396 -0.07523,-0.09466 -0.223422,-0.225303 -0.329302,-0.290309 -0.105886,-0.06501 -0.273719,-0.145857 -0.372983,-0.179671 -0.09925,-0.03381 -0.295045,-0.07176 -0.435066,-0.08434 -0.170188,-0.01527 -0.342421,-0.0028 -0.519531,0.03775 -0.145712,0.03332 -0.362573,0.113606 -0.481898,0.17835 -0.11932,0.06475 -0.221818,0.112126 -0.227757,0.105237 -0.0059,-0.0068 0.03465,-0.124003 0.09023,-0.260275 0.05557,-0.136254 0.166657,-0.354424 0.246878,-0.484803 0.08023,-0.130388 0.280329,-0.384722 0.444683,-0.565204 0.164359,-0.180481 0.413853,-0.406747 0.554434,-0.502812 0.140584,-0.09605 0.256032,-0.18585 0.256557,-0.199523 5.35e-4,-0.01365 -0.118135,-0.06213 -0.263703,-0.10767 -0.145556,-0.04556 -0.40496,-0.118333 -0.576436,-0.161747 -0.171481,-0.04341 -0.316508,-0.08441 -0.322281,-0.0911 -0.0058,-0.0067 0.06457,-0.06806 0.156335,-0.136336 0.09176,-0.06829 0.29188,-0.185694 0.444709,-0.260892 0.152821,-0.07519 0.473648,-0.195901 0.712935,-0.268225 0.239289,-0.07232 0.544673,-0.14303 0.678633,-0.157101 0.133973,-0.01413 0.250726,-0.03904 0.259477,-0.05547 0.0088,-0.01643 -0.11444,-0.04245 -0.273775,-0.05786 -0.1693,-0.01635 -0.448608,-0.0093 -0.672083,0.01698 -0.210313,0.02473 -0.505611,0.07828 -0.656211,0.119015 -0.150609,0.04073 -0.386614,0.12103 -0.524468,0.178452 -0.137856,0.05742 -0.341004,0.157001 -0.451445,0.221305 -0.110438,0.06431 -0.284047,0.182395 -0.38579,0.262435 -0.101747,0.08003 -0.259873,0.22438 -0.351402,0.320753 -0.16641,0.175224 -0.16641,0.175224 -0.04928,0.197859 0.06443,0.01251 0.252672,0.04837 0.418334,0.07981 0.165661,0.03144 0.380265,0.07686 0.4769,0.100886 0.09663,0.02405 0.175701,0.05973 0.175701,0.07931 0,0.01958 -0.02444,0.0356 -0.05432,0.0356 -0.02989,0 -0.209099,0.06005 -0.398262,0.133476 -0.189162,0.0734 -0.499804,0.220742 -0.690308,0.327401 -0.190506,0.106651 -0.506853,0.306514 -0.702996,0.444123 -0.196144,0.137602 -0.504069,0.37705 -0.684279,0.532094 -0.180213,0.155036 -0.399999,0.360375 -0.488416,0.456292 -0.103437,0.112207 -0.160753,0.152842 -0.160753,0.113961 0,-0.03322 0.03954,-0.267054 0.08788,-0.519601 0.05908,-0.308733 0.08923,-0.586344 0.09204,-0.847318 0.0039,-0.362827 -0.0025,-0.401978 -0.09625,-0.600241 -0.05551,-0.117293 -0.164639,-0.268659 -0.24411,-0.338631 -0.07904,-0.06959 -0.222113,-0.155704 -0.317934,-0.191351 -0.103805,-0.03862 -0.33388,-0.07206 -0.569309,-0.08276 -0.217885,-0.0099 -0.518088,0.0024 -0.669335,0.02766 -0.150841,0.02508 -0.3119,0.05577 -0.357917,0.06819 -0.08367,0.0226 -0.08367,0.0226 -0.01674,-0.06514 0.03681,-0.04824 0.184897,-0.190872 0.329073,-0.316949 0.144169,-0.126083 0.400196,-0.323264 0.568934,-0.43819 0.16874,-0.114937 0.557317,-0.365893 0.863509,-0.557704 0.306189,-0.191808 0.645041,-0.41868 0.753,-0.504161 0.107955,-0.08548 0.229174,-0.196661 0.269363,-0.247074 0.04019,-0.0504 0.08799,-0.137359 0.106244,-0.193231 0.01969,-0.06025 0.02189,-0.159635 0.0055,-0.244298 -0.01528,-0.07852 -0.07814,-0.241333 -0.139711,-0.361834 -0.06157,-0.120493 -0.225972,-0.351243 -0.365323,-0.512762 -0.139377,-0.16159 -0.342686,-0.362934 -0.451825,-0.447499 -0.109157,-0.08457 -0.213498,-0.16945 -0.231906,-0.18863 -0.01983,-0.02068 0.225454,-0.02582 0.602401,-0.01268 0.349729,0.01235 0.748819,0.04785 0.88687,0.07911 0.138058,0.03126 0.29902,0.06886 0.357712,0.08357 0.106703,0.02673 0.106703,0.02673 -0.0068,-0.27845 -0.0637,-0.170983 -0.137934,-0.467333 -0.168824,-0.673923 -0.03709,-0.248167 -0.04815,-0.459358 -0.03378,-0.645887 0.01168,-0.152437 0.04074,-0.353296 0.06449,-0.446366 0.04314,-0.169211 0.04314,-0.169211 0.120147,0.0055 0.04236,0.09605 0.141254,0.279461 0.219796,0.407549 0.07854,0.128082 0.246126,0.347408 0.372423,0.487382 0.126289,0.139975 0.329816,0.336786 0.452259,0.437358 0.122453,0.100569 0.355875,0.275488 0.518734,0.388698 0.162859,0.113215 0.476832,0.325559 0.697711,0.471883 0.220881,0.146328 0.533829,0.368584 0.695438,0.493906 0.16161,0.125319 0.39654,0.34023 0.522069,0.477568 0.125525,0.137343 0.270386,0.320251 0.321906,0.406471 0.05152,0.08623 0.100718,0.14857 0.109353,0.138562 0.0086,-0.01008 -0.03216,-0.136953 -0.09062,-0.282107 -0.05847,-0.145158 -0.189712,-0.390334 -0.291639,-0.544856 -0.101927,-0.154516 -0.269026,-0.369671 -0.371332,-0.478114 -0.102307,-0.108459 -0.274828,-0.267121 -0.383381,-0.352616 -0.108548,-0.08549 -0.210749,-0.196261 -0.227103,-0.246144 -0.01635,-0.04988 -0.05428,-0.227641 -0.08428,-0.395018 -0.03476,-0.19403 -0.05453,-0.494229 -0.05451,-0.828316 1.5e-5,-0.288195 0.02359,-0.70739 0.05237,-0.931543 0.02878,-0.224152 0.09892,-0.576804 0.15583,-0.783668 0.05693,-0.206866 0.150623,-0.460129 0.208237,-0.562807 0.104745,-0.18669 0.104745,-0.18669 0.130964,0.182045 0.01449,0.202805 0.06533,0.517203 0.113116,0.698657 0.04779,0.18146 0.149033,0.469017 0.224994,0.639021 0.07596,0.170005 0.2253,0.445492 0.331873,0.612198 0.106568,0.166704 0.315776,0.460915 0.464893,0.6538 0.14911,0.192886 0.566844,0.659283 0.928284,1.036437 0.36144,0.377153 0.872789,0.930703 1.13633,1.230109 0.263544,0.299408 0.564086,0.675376 0.667869,0.835485 0.103795,0.160106 0.201606,0.308573 0.217375,0.329921 0.01578,0.02135 0.01326,-0.0087 -0.0056,-0.0666 -0.01886,-0.05799 -0.06381,-0.171512 -0.09988,-0.252293 -0.03606,-0.08078 -0.146149,-0.282048 -0.244654,-0.447257 -0.0985,-0.16521 -0.306774,-0.468409 -0.462811,-0.673776 -0.156038,-0.205366 -0.577375,-0.683771 -0.936308,-1.063119 -0.35893,-0.379347 -0.744333,-0.801005 -0.856449,-0.937019 -0.113958,-0.138252 -0.22464,-0.315753 -0.250999,-0.402552 -0.03249,-0.106958 -0.0468,-0.330342 -0.04605,-0.718066 8.02e-4,-0.418076 0.01652,-0.627686 0.06109,-0.8151 0.03299,-0.138757 0.09856,-0.352726 0.145697,-0.475477 0.04714,-0.122735 0.09872,-0.22318 0.114611,-0.22318 0.01588,0 0.0289,0.09698 0.0289,0.21552 0,0.118544 0.02367,0.341233 0.05258,0.494882 0.03018,0.160366 0.136234,0.47775 0.248997,0.745134 0.108033,0.256176 0.283915,0.599597 0.390856,0.763162 0.106937,0.163564 0.313844,0.449377 0.459787,0.635142 0.145946,0.185762 0.575156,0.668378 0.953802,1.072472 0.378649,0.404098 0.821441,0.904276 0.983981,1.111506 0.162543,0.207228 0.375497,0.516512 0.473232,0.687294 0.09774,0.170782 0.222425,0.415313 0.277089,0.543401 0.05467,0.128082 0.130902,0.346416 0.169428,0.485179 0.03852,0.138757 0.08734,0.365824 0.108515,0.504586 0.02184,0.143208 0.02929,0.372018 0.01726,0.529186 -0.02039,0.266236 -0.01824,0.277757 0.05602,0.299376 0.04248,0.01251 0.142797,0.08756 0.222931,0.167117 0.08014,0.07955 0.166321,0.201898 0.191537,0.271886 0.02521,0.07 0.04585,0.180219 0.04585,0.244946 0,0.0727 0.01721,0.117699 0.04501,0.117699 0.02475,0 0.135003,-0.06747 0.244968,-0.149886 0.109968,-0.08245 0.253437,-0.226536 0.318807,-0.320217 0.06536,-0.09369 0.142219,-0.222731 0.170787,-0.286774 0.04578,-0.102651 0.05482,-0.107922 0.07616,-0.04447 0.01325,0.03958 0.01528,0.284118 0.0045,0.543401 -0.01403,0.336851 -0.04422,0.568752 -0.105506,0.81237 -0.04716,0.187522 -0.129422,0.452599 -0.182765,0.589058 -0.05335,0.136465 -0.168227,0.376028 -0.255283,0.532374 -0.08705,0.156352 -0.258478,0.397797 -0.380932,0.536559 -0.122453,0.138757 -0.287711,0.293756 -0.367237,0.344436 -0.14459,0.09214 -0.14459,0.09214 -0.118743,-0.03881 0.01418,-0.07202 0.02475,-0.248109 0.02342,-0.391295 -0.0017,-0.189711 -0.02465,-0.31607 -0.08427,-0.465771 -0.04499,-0.113004 -0.125448,-0.256063 -0.178809,-0.317945 -0.05335,-0.06187 -0.172308,-0.152745 -0.264343,-0.201943 -0.09204,-0.0492 -0.257692,-0.117861 -0.368133,-0.152599 -0.113443,-0.03568 -0.401517,-0.07265 -0.662183,-0.08494 -0.253762,-0.01202 -0.456435,-0.03241 -0.45039,-0.04541 0.006,-0.01299 0.06646,-0.154631 0.13427,-0.314739 0.07297,-0.172332 0.131822,-0.378212 0.144216,-0.504589 0.01791,-0.182526 0.0104,-0.228902 -0.05158,-0.319873 -0.04607,-0.06759 -0.14191,-0.131185 -0.262764,-0.174352 -0.151355,-0.05405 -0.306532,-0.06737 -0.759173,-0.06499 -0.333948,0.0017 -0.741718,0.03021 -0.987269,0.06893 -0.230085,0.03628 -0.568324,0.109786 -0.751646,0.163339 -0.183323,0.05355 -0.337897,0.102684 -0.3435,0.109181 -0.0056,0.0065 0.144388,0.0233 0.333313,0.03735 0.188924,0.01397 0.447969,0.05142 0.575653,0.08304 0.127691,0.03165 0.244334,0.07165 0.259222,0.08892 0.01497,0.01727 -0.02641,0.183487 -0.09176,0.369383 -0.06535,0.185896 -0.141394,0.463645 -0.169013,0.61722 -0.02761,0.153574 -0.04095,0.341282 -0.02964,0.417118 0.01123,0.07585 0.03848,0.165602 0.0604,0.199472 0.0219,0.03386 0.07478,0.08317 0.117496,0.109576 0.0585,0.03614 0.103716,0.03746 0.183118,0.0054 0.05799,-0.02345 0.149376,-0.09022 0.203068,-0.148392 0.09763,-0.105752 0.09763,-0.105752 0.07631,0.01074 -0.01169,0.06405 -0.0434,0.229973 -0.0704,0.368735 -0.027,0.138757 -0.04962,0.380268 -0.05026,0.536684 -0.0011,0.261498 0.0066,0.293253 0.09378,0.39452 0.06335,0.07347 0.144123,0.118301 0.242636,0.134678 0.08122,0.01349 0.219209,0.0084 0.306642,-0.01085 0.08742,-0.01958 0.158966,-0.02239 0.158966,-0.0064 0,0.01625 -0.06263,0.138171 -0.139196,0.271132 -0.08437,0.146538 -0.237416,0.332276 -0.388593,0.471608 -0.137169,0.126425 -0.38703,0.306102 -0.555241,0.399291 -0.168212,0.0932 -0.41614,0.20721 -0.550953,0.25338 -0.134815,0.04618 -0.353182,0.09333 -0.485269,0.104798 -0.240158,0.02086 -0.240158,0.02086 -0.06951,-0.116025 z m 3.209499,-5.654344 c 0.01122,-0.02133 -0.02915,-0.147968 -0.09006,-0.281403 -0.06091,-0.133427 -0.220356,-0.376068 -0.354332,-0.539193 -0.170749,-0.207896 -0.314888,-0.340037 -0.481986,-0.441875 -0.238384,-0.145288 -0.238384,-0.145288 -0.217284,-0.02292 0.01153,0.0673 0.06796,0.252903 0.125229,0.41245 0.06203,0.172826 0.165642,0.369441 0.256313,0.486403 0.08372,0.107988 0.211773,0.231572 0.284594,0.274662 0.07283,0.04307 0.195,0.09271 0.271502,0.110258 0.07649,0.01754 0.149501,0.03385 0.162222,0.03618 0.01278,0.0023 0.03245,-0.01316 0.04381,-0.03454 z"
        vector-effect="non-scaling-stroke"
      />
    </g>
  </g>
</svg>