<?xml version="1.0" encoding="UTF-8" standalone="no"?>
<!-- Created with Inkscape (http://www.inkscape.org/) -->

<svg
   width="285"
   height="255"
   viewBox="0 0 71.25 63.75"
   version="1.1"
   id="svg1"
   xml:space="preserve"
   xmlns="http://www.w3.org/2000/svg"
   xmlns:svg="http://www.w3.org/2000/svg"><defs
     id="defs1" /><g
     id="layer2"
     transform="translate(-0.573003,-4.8667372)"><path
       style="display:inline;opacity:0.98;fill:#000000;stroke:#000000;stroke-width:0.25;stroke-linecap:round;stroke-linejoin:round;stroke-miterlimit:1"
       d="M 4.1229164,67.637504 H 25.847915 a 0.1437991,0.1437991 119.90736 0 0 0.124301,-0.216101 L 19.969448,57.101521 A 0.43463416,0.43463416 29.907358 0 0 19.593749,56.88542 h -3.46875 a 0.12500002,0.12500002 63.434945 0 1 -0.1,-0.2 l 3.66875,-4.891668 a 0.1642379,0.1642379 3.5669139 0 1 0.274001,0.01708 l 8.916581,15.609592 a 0.43071856,0.43071856 30.131969 0 0 0.374001,0.21708 h 12.729166 a 0.14312213,0.14312213 119.79064 0 0 0.123421,-0.215587 L 21.293244,31.965589 c -0.06991,-0.119065 -0.187467,-0.30967 -0.270445,-0.420001 -0.392027,-0.52125 -0.643245,-0.521198 -1.035301,1.56e-4 -0.08291,0.11025 -0.200147,0.30094 -0.269717,0.420203 L 1.4488843,63.28406 c -0.06957,0.119263 -0.1259953,0.327874 -0.1261686,0.465945 -0.00302,2.405875 -0.010585,3.792235 2.3003949,3.882767 0.1378829,0.0054 0.3617346,0.0047 0.4998058,0.0047 z"
       id="path1" /><path
       style="opacity:0.98;fill:#000000;stroke:#000000;stroke-width:0.25;stroke-linecap:round;stroke-linejoin:round;stroke-miterlimit:1"
       d="m 45.927081,67.637504 23.841665,0 c 0.138071,0 0.330335,-0.07864 0.415062,-0.187548 1.08529,-1.395016 0.872405,-4.62712 0.04421,-6.373132 -0.05915,-0.124692 -0.167794,-0.320497 -0.234848,-0.441193 L 57.006823,37.260209 A 0.42487864,0.42487864 30.472697 0 0 56.635412,37.04167 H 39.937498 a 0.43079482,0.43079482 30.127565 0 1 -0.374035,-0.217061 l -5.043595,-8.826296 c -0.0685,-0.11988 -0.176403,-0.316345 -0.22743,-0.444597 -0.126727,-0.318521 -0.126725,-0.549337 7e-6,-0.867861 0.05102,-0.128243 0.16205,-0.322845 0.234412,-0.440435 l 1.854617,-3.013754 c 0.07236,-0.11759 0.200621,-0.30465 0.314979,-0.381633 0.05885,-0.03962 0.102376,-0.03963 0.161222,-2.3e-5 0.114388,0.07698 0.240248,0.265504 0.309645,0.384868 l 6.363272,10.94483 a 0.43453088,0.43453088 29.913243 0 0 0.375655,0.216127 h 11.40625 a 0.14508064,0.14508064 120.12756 0 0 0.125965,-0.217061 L 39.811532,6.8316445 C 39.743029,6.7117651 39.60891,6.5345308 39.503198,6.4457803 38.195549,5.3479386 35.887801,5.3479348 34.580144,6.4457689 34.474424,6.5345251 34.340958,6.7121381 34.273267,6.8324776 L 22.612147,27.563358 c -0.06769,0.12034 -0.174933,0.317178 -0.225959,0.44543 -0.126726,0.318521 -0.126724,0.549337 6e-6,0.86786 0.05102,0.128243 0.16205,0.322845 0.234412,0.440435 L 32.941891,46.08917 a 0.44739109,0.44739109 29.19625 0 0 0.381024,0.212915 H 50.02083 a 0.45106182,0.45106182 28.997313 0 1 0.3825,0.212 l 6.349582,10.159335 a 0.13856194,0.13856194 118.99731 0 1 -0.1175,0.212 H 51.843747 A 0.46712924,0.46712924 28.154968 0 1 51.455072,56.677407 L 46.440756,49.155933 A 0.46712924,0.46712924 28.154968 0 0 46.052081,48.94792 l -11.406249,0 a 0.14111026,0.14111026 119.44217 0 0 -0.120808,0.214031 l 11.022865,18.261522 a 0.44291605,0.44291605 29.442167 0 0 0.379192,0.214031 z"
       id="path2" /></g></svg>
