<?xml version="1.0" encoding="UTF-8" standalone="no"?>
<!-- Created with Inkscape (http://www.inkscape.org/) -->

<svg
   viewBox="0 0 52.916666 52.916667"
   version="1.1"
   id="svg1"
   xml:space="preserve"
   inkscape:version="1.3.2 (091e20e, 2023-11-25)"
   sodipodi:docname="availo.svg"
   xmlns:inkscape="http://www.inkscape.org/namespaces/inkscape"
   xmlns:sodipodi="http://sodipodi.sourceforge.net/DTD/sodipodi-0.dtd"
   xmlns="http://www.w3.org/2000/svg"
   xmlns:svg="http://www.w3.org/2000/svg"><sodipodi:namedview
     id="namedview1"
     pagecolor="#ffffff"
     bordercolor="#000000"
     borderopacity="0.25"
     inkscape:showpageshadow="2"
     inkscape:pageopacity="0.0"
     inkscape:pagecheckerboard="0"
     inkscape:deskcolor="#d1d1d1"
     inkscape:document-units="mm"
     showgrid="false"
     inkscape:zoom="1.1893044"
     inkscape:cx="96.274764"
     inkscape:cy="114.35256"
     inkscape:window-width="1440"
     inkscape:window-height="791"
     inkscape:window-x="0"
     inkscape:window-y="25"
     inkscape:window-maximized="1"
     inkscape:current-layer="layer1"><inkscape:grid
       id="grid1"
       units="px"
       originx="-79.379135"
       originy="-168.27756"
       spacingx="0.26458333"
       spacingy="0.26458334"
       empcolor="#0099e5"
       empopacity="0.30196078"
       color="#0099e5"
       opacity="0.14901961"
       empspacing="5"
       dotted="false"
       gridanglex="30"
       gridanglez="30"
       visible="false" /></sodipodi:namedview><defs
     id="defs1"><inkscape:path-effect
       effect="fillet_chamfer"
       id="path-effect3"
       is_visible="true"
       lpeversion="1"
       nodesatellites_param="F,0,0,1,0,1.0583333,0,1 @ F,0,0,1,0,1.0583333,0,1 @ F,0,0,1,0,1.0583333,0,1 @ F,0,0,1,0,1.0583333,0,1 | F,0,0,1,0,1.0583333,0,1 @ F,0,0,1,0,1.0583333,0,1 @ F,0,0,1,0,1.0583333,0,1 @ F,0,0,1,0,1.0583333,0,1 | F,0,0,1,0,1.0583333,0,1 @ F,0,0,1,0,1.0583333,0,1 @ F,0,0,1,0,1.0583333,0,1 @ F,0,0,1,0,1.0583333,0,1 @ F,0,0,1,0,1.0583333,0,1 @ F,0,0,1,0,1.0583333,0,1 @ F,0,0,1,0,1.0583333,0,1"
       radius="4"
       unit="px"
       method="auto"
       mode="F"
       chamfer_steps="1"
       flexible="false"
       use_knot_distance="true"
       apply_no_radius="true"
       apply_with_radius="true"
       only_selected="false"
       hide_knots="false" /><inkscape:path-effect
       effect="fillet_chamfer"
       id="path-effect2"
       is_visible="false"
       lpeversion="1"
       nodesatellites_param="F,0,0,1,0,0.52916667,0,1 @ F,0,0,1,0,0.52916667,0,1 @ F,0,0,1,0,0.52916667,0,1 @ F,0,0,1,0,0.52916667,0,1 | F,0,0,1,0,0.52916667,0,1 @ F,0,0,1,0,0.52916667,0,1 @ F,0,0,1,0,0.52916667,0,1 @ F,0,0,1,0,0.52916667,0,1 | F,0,0,1,0,0.52916667,0,1 @ F,0,0,1,0,0.52916667,0,1 @ F,0,0,1,0,0.52916667,0,1 @ F,0,0,1,0,0.52916667,0,1 @ F,0,0,1,0,0.52916667,0,1"
       radius="2"
       unit="px"
       method="auto"
       mode="F"
       chamfer_steps="1"
       flexible="false"
       use_knot_distance="true"
       apply_no_radius="true"
       apply_with_radius="true"
       only_selected="false"
       hide_knots="false" /><inkscape:path-effect
       effect="fillet_chamfer"
       id="path-effect1"
       is_visible="true"
       lpeversion="1"
       nodesatellites_param="F,0,0,1,0,0.13229167,0,1 @ F,0,0,1,0,0.13229167,0,1 @ F,0,0,1,0,0.13229167,0,1 @ F,0,0,1,0,0.13229167,0,1 | F,0,0,1,0,0.13229167,0,1 @ F,0,0,1,0,0.13229167,0,1 @ F,0,0,1,0,0.13229167,0,1 @ F,0,0,1,0,0.13229167,0,1 | F,0,0,1,0,0.13229167,0,1 @ F,0,0,1,0,0.13229167,0,1 @ F,0,0,1,0,0.13229167,0,1 @ F,0,0,1,0,0.13229167,0,1 @ F,0,0,1,0,0.13229167,0,1"
       radius="1"
       unit="px"
       method="auto"
       mode="F"
       chamfer_steps="1"
       flexible="false"
       use_knot_distance="true"
       apply_no_radius="true"
       apply_with_radius="true"
       only_selected="false"
       hide_knots="false" 
      /></defs>
      <g
        transform="translate(-79.379136,-168.27756)">
        <path
       d="m 90.543686,214.75369 c 2.204808,-3.32891 10.118794,-15.34901 14.762994,-23.34008 0.29264,-0.50354 0.76147,-0.50204 1.05503,0.003 4.70603,8.10226 12.56938,20.03276 14.76287,23.34032 0.32185,0.48532 0.29191,1.26015 -0.16792,1.61732 -2.16579,1.68225 -8.01205,4.25632 -14.06538,4.52888 -0.58384,0.0263 -1.53208,0.0254 -2.11587,-0.002 -6.013059,-0.28637 -11.831369,-2.87414 -14.045108,-4.5463 -0.465017,-0.35126 -0.509374,-1.11379 -0.186616,-1.60111 z m 11.400764,-7.32453 c 0.26841,1.63269 1.21336,2.56826 2.83484,2.83476 0.57607,0.0947 1.53218,0.0948 2.10806,-0.001 1.61891,-0.27017 2.56343,-1.21472 2.83357,-2.83366 0.0961,-0.57582 0.0961,-1.53205 -2e-5,-2.10793 -0.27016,-1.61891 -1.21472,-2.56343 -2.83366,-2.83357 -0.57582,-0.0961 -1.53205,-0.0961 -2.10793,2e-5 -1.61891,0.27016 -2.56343,1.21472 -2.83357,2.83366 -0.0961,0.57582 -0.096,1.53193 -0.001,2.10806 z m 5.67128,-28.11576 c -1.08005,-0.51855 -2.48474,-0.51855 -3.56478,-1e-5 -0.52443,0.25178 -1.16155,0.97249 -1.48461,1.45894 -2.976237,4.48149 -14.518641,24.3167 -17.297303,28.70977 -0.310383,0.49072 -0.888442,0.4837 -1.222556,0.004 -3.241872,-4.6531 -4.493204,-9.3062 -4.653457,-13.95929 -0.02012,-0.58417 -0.01998,-1.5324 0.01104,-2.11601 0.437943,-8.24013 5.956198,-24.54832 25.371099,-25.12048 0.58422,-0.0172 1.53212,-0.0172 2.11635,-1.2e-4 16.70261,0.4877 24.94541,12.52974 25.38184,25.12029 0.0202,0.58412 0.0208,1.53228 -0.007,2.11604 -0.23523,4.85893 -2.06202,9.721 -4.6918,13.92799 -0.30981,0.49564 -0.81521,0.48119 -1.11298,-0.0218 -2.65646,-4.48722 -14.35027,-24.20443 -17.35605,-28.664 -0.32638,-0.48425 -0.96492,-1.2037 -1.48933,-1.45548 z"
       transform="translate(0.00394985,0.13580865)" 
       />
      </g>
      </svg>
