<svg width="100" height="100" viewBox="0 0 100 80" xmlns="http://www.w3.org/2000/svg">
  <defs>
    <style>
      .cls-1{fill:#fff;}
      .cls-2{fill:#000;}
    </style>
  </defs>
  <g id="Layer_2" data-name="Layer 2">
    <g id="Layer_1-2" data-name="Layer 1">
      <path class="cls-2" d="M60.55,16.59C57.69,6.23,49,0,38.83,0,21.92,0,8.23,13.78,8.23,30.69A30.29,30.29,0,0,0,15.65,51.84L.78,57.14a2.5,2.5,0,0,0-1.2,3.31l.24.47a2.5,2.5,0,0,0,3.31,1.2L18.87,57a30.65,30.65,0,0,0,19.95,7.69c17.65,0,31.95-14.3,31.95-31.95A30.4,30.4,0,0,0,60.55,16.59Z"/>
      <path class="cls-1" d="M38.83,5.22c7.63,0,14.28,4.72,17.15,11.83a25.86,25.86,0,0,0-17.15-4.83,25.43,25.43,0,0,0-17.51,7.21c-4.46,4.46-7.21,11-7.21,18.15a25.46,25.46,0,0,0,25.46,25.46,25.46,25.46,0,0,0,25.46-25.46c0-7.17-2.78-13.79-7.25-18.25-4.5-4.5-11.08-7.25-18.21-7.25Z"/>
      <path class="cls-2" d="M56.28,30.69A17.46,17.46,0,1,1,38.83,13.23,17.46,17.46,0,0,1,56.28,30.69Z"/>
      <circle class="cls-1" cx="29.09" cy="27.42" r="6.06"/>
      <circle class="cls-1" cx="48.56" cy="27.42" r="6.06"/>
      <path class="cls-2" d="M84.7,59.39c-2.45-3.32-7.85-4.2-11.17-1.75l-.36.26a2.5,2.5,0,0,0-1.12,3.34l.27.52a2.5,2.5,0,0,0,3.34,1.12l.36-.26c3.32-2.45,4.2-7.85,1.75-11.17Z"/>
      <path class="cls-2" d="M78.6,30.69A27.34,27.34,0,0,0,73.19,16.29c-2.9-1.92-5.74-3.41-8.22-4.25-.49-.17-.93-.34-1.34-.51a.63.63,0,0,1-.05-.07c-2.82-1.07-5.92-.7-8.12,1-2.09,1.61-3,4-2.81,6.54.12,1.69.75,3.3,1.78,4.77C55.43,26,56,27.05,56.28,28.29l.13.56c.21.93.36,1.91.46,2.94a2.55,2.55,0,0,0,5.08-.22c-.11-1.29-.29-2.55-.54-3.77-.33-1.61-1-3.21-2-4.66a.8.8,0,0,0-.14-.19c-.83-1.1-1.63-2.09-2.28-2.95-.59-.8-.82-1.61-.7-2.45.16-1.09.81-1.87,1.86-2.24.89-.32,1.83-.24,2.59.16,1.38.74,2.78,1.6,4.03,2.54,2.2,1.63,4.19,3.75,5.82,6.18,4.72,7.09,7.39,15.71,7.39,24.82A27.34,27.34,0,0,1,78.6,30.69Z"/>
    </g>
  </g>
</svg>