<?xml version="1.0" encoding="UTF-8" standalone="no"?>
<!-- Created with Inkscape (http://www.inkscape.org/) -->

<svg
   width="620"
   height="484.00003"
   viewBox="0 0 164.04165 128.05834"><g
     transform="translate(-23.026806,-88.242626)"><path
       d="m 105.80941,215.75004 c -26.673666,-1.50763 -49.732549,-8.8332 -54.112937,-17.19113 -0.589324,-1.12446 -0.623179,-1.15161 -1.931795,-1.54974 -11.878706,-3.61391 -17.702216,-22.46837 -10.39418,-33.65268 l 0.819381,-1.254 -0.414008,-0.4083 c -0.55371,-0.54609 -1.076698,-1.50253 -1.076698,-1.96908 0,-0.29277 -0.131911,-0.37857 -0.581971,-0.37857 -8.746663,0 -16.967966,-10.62023 -14.083463,-18.19292 4.077146,-10.70375 28.736141,-35.33497 43.027837,-42.979381 l 2.521191,-1.348546 0.09587,-1.398415 c 0.422238,-6.159108 11.602275,-9.470103 14.662809,-4.342426 0.205891,0.344954 0.288681,0.339153 3.155323,-0.221069 12.307514,-2.405231 25.734221,-2.095295 43.312481,0.999805 12.87626,2.267193 23.10917,4.436013 25.85528,5.47991 11.81506,4.491342 15.07285,17.800272 6.46046,26.392652 -0.91987,0.91773 -0.91597,0.92001 2.62257,1.52932 14.32242,2.46623 20.90151,5.6288 20.90151,10.04737 0,3.40954 -4.35354,5.90865 -12.93425,7.42479 -1.28263,0.22663 -2.3593,0.43078 -2.3926,0.45366 -0.0333,0.0229 0.29846,0.98672 0.73725,2.14186 0.43879,1.15514 0.96539,2.68206 1.17021,3.39315 0.45061,1.5644 0.47815,1.59908 1.80702,2.27534 9.51556,4.84246 10.85033,27.31885 1.97121,33.19366 -0.55862,0.36962 -1.05672,0.85178 -1.10687,1.07148 -0.0502,0.21971 -0.28654,1.25918 -0.5253,2.30994 -4.19791,18.47497 -33.2182,30.22775 -69.56633,28.17332 z m 17.82776,-2.93238 c 20.87803,-1.76554 37.54128,-8.00268 44.6584,-16.71589 9.67562,-11.84548 7.11215,-43.69137 -4.86634,-60.45433 -1.87265,-2.62062 -2.2551,-2.43591 5.04362,-2.43591 8.28282,0 12.08527,0.75316 14.06548,2.78598 0.6818,0.69991 1.02594,0.65079 1.03385,-0.14758 0.0292,-2.95153 -12.14473,-5.14877 -21.92296,-3.9568 -12.60214,1.5362 -22.69171,4.22092 -41.16557,10.95369 -20.05534,7.30913 -27.700042,8.22198 -42.067929,5.0233 l -3.418426,-0.76103 -3.587212,1.71252 -3.587212,1.71252 0.894418,1.60519 c 8.796622,15.78708 10.841069,37.91777 4.962554,53.71856 l -0.709244,1.90636 0.466974,0.16003 c 11.608584,3.97813 34.562957,6.2157 50.199597,4.89339 z m -20.4377,-31.49032 c -10.393337,-1.65883 -14.951705,-15.85072 -7.872326,-24.50943 6.356086,-7.77406 18.436976,-3.81166 20.942956,6.86907 2.2088,9.41415 -4.85768,18.9512 -13.07063,17.64036 z m 54.58333,-4.82536 c -8.10022,-1.36886 -11.2752,-16.58656 -4.7799,-22.9101 4.15008,-4.04033 10.18015,-1.98224 12.91407,4.40762 3.72598,8.70856 -1.10211,19.69083 -8.13417,18.50248 z m -85.370135,28.61181 c 4.831676,-13.47131 4.019936,-31.6879 -2.0641,-46.32135 -1.130835,-2.71991 -3.696904,-7.63611 -3.927452,-7.5244 -5.494242,2.66207 -9.483146,4.65634 -9.479063,4.73911 0.0029,0.0589 0.387283,0.26612 0.854168,0.46043 14.189105,5.90531 12.868697,40.25995 -1.598725,41.59594 -1.585815,0.14644 -1.590652,0.17826 -0.215486,1.41775 2.854799,2.57315 6.945393,4.78518 12.735985,6.88712 3.161021,1.14743 2.787682,1.2742 3.694673,-1.2546 z m -14.485664,-9.79953 c 7.129757,-2.7603 9.500206,-19.65644 4.213884,-30.03581 -3.839632,-7.53889 -9.259146,-8.96573 -16.796093,-4.42206 -1.92369,1.1597 -1.99761,1.35315 -0.524149,1.37171 10.414907,0.13119 12.988233,29.26174 2.664316,30.16058 l -1.280145,0.11145 0.816786,0.48608 c 3.671934,2.1852 8.572297,3.23131 10.905401,2.32805 z m -9.23612,-4.8761 c 5.046696,-3.64585 4.467671,-20.48399 -0.869833,-25.2949 -7.691544,-6.9327 -12.039468,10.95943 -5.512468,22.68433 1.727295,3.10286 4.264371,4.14061 6.382301,2.61057 z m -3.925049,-3.39434 c -4.124397,-3.264 -5.007813,-17.0918 -1.234318,-19.32035 3.027705,-1.78811 6.022924,3.70302 6.027039,11.04934 0.0037,6.56445 -2.182293,10.33687 -4.792721,8.27101 z M 178.0491,179.01705 c 3.87362,-6.98581 2.40049,-20.43316 -2.71761,-24.80736 l -0.71574,-0.61171 0.3813,1.81225 c 1.59582,7.58482 2.4173,21.49709 1.50297,25.45382 l -0.12804,0.5541 0.4289,-0.46175 c 0.23589,-0.25396 0.79759,-1.12667 1.24822,-1.93935 z M 57.039222,149.93006 c 33.095116,-18.15811 63.419498,-27.77779 88.933878,-28.21216 9.84545,-0.16761 12.26024,0.27943 12.43309,2.30165 l 0.0668,0.78181 -7.06963,0.0728 c -23.29233,0.23998 -52.618531,7.76884 -73.868703,18.96418 -2.685754,1.41495 -2.653456,1.34174 -0.789709,1.79001 l 1.55681,0.37444 0.994278,-0.5571 0.994278,-0.55709 3.845653,0.23724 c 13.42721,0.82836 18.119523,-0.0602 37.554463,-7.11157 19.56649,-7.09908 38.83805,-10.36938 51.22619,-8.69285 1.06905,0.14468 1.97431,0.23548 2.0117,0.20178 0.12266,-0.11057 -13.91655,-2.86036 -14.64366,-2.86819 -0.0179,-1.9e-4 -0.064,-0.85228 -0.10246,-1.89352 -0.11257,-3.04971 -0.79694,-3.57016 -5.55085,-4.22138 -4.74703,-0.65027 -12.79993,-0.6701 -18.23762,-0.0449 l -0.97283,0.11185 0.92452,-1.75914 c 3.76965,-7.17269 1.85211,-14.08043 -5.0239,-18.0981 -7.15732,-4.182022 -22.56896,-8.850677 -29.05735,-8.802349 l -2.19246,0.01633 2.26035,0.426365 c 16.94663,3.196609 30.3104,8.705414 33.24651,13.704864 2.65468,4.52024 1.03085,14.21342 -2.46794,14.73197 -0.36414,0.054 -2.44845,0.35579 -4.6318,0.67072 -16.03116,2.31236 -33.541839,7.8587 -53.980891,17.09795 l -2.271694,1.0269 -0.933732,-0.40726 c -13.233126,-5.77183 -12.216941,-18.5938 3.224121,-40.681155 0.692416,-0.990452 1.1834,-1.800822 1.091076,-1.800822 -2.628934,0 -12.367749,17.010197 -14.18266,24.771997 -1.806203,7.72455 2.436924,16.52612 8.851716,18.36123 0.684926,0.19594 0.448711,0.371 -2.735591,2.02735 -1.718739,0.89402 -6.667172,3.57494 -10.996517,5.95761 l -7.871537,4.33211 -0.826275,-0.22313 c -6.084141,-1.64301 -10.896782,-5.99124 -11.507505,-10.39705 -0.730854,-5.27244 6.006213,-16.47402 19.853096,-33.00934 0.127603,-0.15237 -0.431502,0.24696 -1.242456,0.88741 -7.10345,5.60995 -18.64882,23.27622 -19.586223,29.97007 -0.701488,5.00922 2.962147,9.8278 9.539996,12.54744 2.421356,1.00112 2.440938,0.78237 -0.210796,2.35476 -3.128576,1.85515 -3.534814,2.22921 -3.534814,3.25481 v 0.8287 l 4.969231,-2.60338 c 2.733077,-1.43186 7.643395,-4.0706 10.911817,-5.86387 z m 27.290809,-5.66862 c -2.395975,-0.0995 -2.301891,-0.2266 1.411602,-1.90728 26.099397,-11.81223 58.650497,-18.07071 77.649387,-14.92936 1.20329,0.19896 1.98536,0.52279 1.26256,0.52279 -13.13573,0 -25.75201,2.74853 -45.52458,9.91778 -16.48399,5.97686 -21.719393,6.93913 -34.798969,6.39607 z M 78.965314,93.122232 c 3.405482,-1.04998 3.206918,-0.934495 2.521305,-1.466397 -2.142224,-1.66195 -7.193757,-0.291573 -8.652703,2.347301 -0.908074,1.642483 -0.794835,1.708766 1.367083,0.800205 1.042514,-0.438123 3.186456,-1.194622 4.764315,-1.681109 z" /></g></svg>
