<?xml version="1.0" encoding="UTF-8" standalone="no"?>

<svg
   xmlns="http://www.w3.org/2000/svg"
   preserveAspectRatio="none"
   viewBox="0 0 32 33">
  <g
     transform="translate(-34.931775,-27.983059)">
    <path
       d="m 52.103994,59.874362 c 0.210575,-0.17241 0.527988,-0.506507 0.705352,-0.742424 0.177367,-0.235925 0.419014,-0.60678 0.536994,-0.824146 0.117976,-0.217344 0.214524,-0.441519 0.214524,-0.498122 0,-0.07546 -0.105231,-0.0702 -0.394225,0.01993 -0.216813,0.06745 -0.715242,0.147515 -1.107591,0.177815 -0.713362,0.05519 -0.713362,0.05519 -0.329283,-0.403034 0.211249,-0.251996 0.487011,-0.687935 0.612833,-0.968695 0.125852,-0.280727 0.286369,-0.746557 0.35671,-1.035103 0.09195,-0.377003 0.119098,-0.739712 0.09648,-1.288969 -0.02385,-0.579288 -0.0788,-0.886482 -0.227217,-1.268832 -0.107655,-0.277487 -0.333866,-0.681876 -0.502694,-0.898685 -0.168797,-0.216795 -0.501301,-0.516 -0.738868,-0.66488 -0.237581,-0.148889 -0.614155,-0.334049 -0.836877,-0.411491 -0.222692,-0.07743 -0.662005,-0.164349 -0.976176,-0.19316 -0.381857,-0.03497 -0.768303,-0.0064 -1.165692,0.08646 -0.32694,0.07631 -0.81352,0.260186 -1.081254,0.408466 -0.267723,0.148294 -0.497702,0.256796 -0.511028,0.241019 -0.01324,-0.01557 0.07775,-0.283998 0.202453,-0.596095 0.124684,-0.312055 0.373935,-0.811719 0.55393,-1.110319 0.180015,-0.298622 0.628985,-0.88111 0.997753,-1.294459 0.368779,-0.413346 0.928579,-0.931552 1.244006,-1.151564 0.315434,-0.219979 0.574469,-0.425643 0.575647,-0.456958 0.0012,-0.03126 -0.265064,-0.142293 -0.591681,-0.246591 -0.32659,-0.104344 -0.908625,-0.271012 -1.293372,-0.370441 -0.384759,-0.09942 -0.710162,-0.19332 -0.723115,-0.208642 -0.01301,-0.01534 0.144878,-0.155874 0.350775,-0.312243 0.205885,-0.156401 0.654903,-0.425286 0.997811,-0.597508 0.342891,-0.172204 1.062744,-0.448662 1.599641,-0.614302 0.536903,-0.165631 1.222105,-0.327574 1.522677,-0.359801 0.3006,-0.03236 0.562564,-0.08941 0.582199,-0.12704 0.01975,-0.03763 -0.256774,-0.09722 -0.61428,-0.132514 -0.379866,-0.03744 -1.00656,-0.0213 -1.50798,0.03889 -0.471888,0.05664 -1.13446,0.179281 -1.472367,0.272574 -0.337928,0.09328 -0.867462,0.277189 -1.17677,0.4087 -0.309313,0.131506 -0.765125,0.359571 -1.012926,0.506843 -0.247794,0.147286 -0.637327,0.41773 -0.865612,0.601042 -0.228294,0.183288 -0.583088,0.513886 -0.788455,0.734604 -0.373381,0.401307 -0.373381,0.401307 -0.110572,0.453147 0.144565,0.02865 0.566931,0.110779 0.938633,0.182784 0.371701,0.07201 0.853216,0.176029 1.07004,0.231054 0.216813,0.05508 0.394227,0.136797 0.394227,0.18164 0,0.04484 -0.05484,0.08153 -0.121879,0.08153 -0.06707,0 -0.469164,0.13753 -0.893597,0.305693 -0.42443,0.168105 -1.12143,0.505555 -1.548872,0.74983 -0.427446,0.244258 -1.137247,0.701994 -1.57734,1.017153 -0.440097,0.315143 -1.131,0.863538 -1.535345,1.218628 -0.404351,0.355071 -0.897494,0.825348 -1.095879,1.045022 -0.232085,0.256982 -0.360688,0.350046 -0.360688,0.260999 0,-0.07608 0.08872,-0.61162 0.19718,-1.190016 0.13256,-0.707075 0.200209,-1.342874 0.206514,-1.940569 0.0088,-0.830964 -0.0056,-0.92063 -0.21596,-1.374702 -0.12455,-0.26863 -0.369407,-0.615296 -0.547719,-0.775549 -0.177346,-0.159379 -0.498364,-0.356601 -0.713362,-0.438242 -0.232911,-0.08845 -0.74914,-0.165035 -1.277381,-0.189541 -0.488878,-0.02267 -1.162455,0.0055 -1.501814,0.06335 -0.338448,0.05744 -0.699823,0.127727 -0.803073,0.156172 -0.187734,0.05176 -0.187734,0.05176 -0.03756,-0.149187 0.08259,-0.110482 0.414861,-0.437145 0.738354,-0.725892 0.323478,-0.288762 0.897936,-0.740356 1.27654,-1.003565 0.378609,-0.263234 1.250475,-0.837986 1.93749,-1.277281 0.687009,-0.439288 1.447305,-0.958882 1.689537,-1.154654 0.242223,-0.195771 0.514207,-0.450403 0.60438,-0.565862 0.09018,-0.115428 0.197427,-0.314586 0.238384,-0.442547 0.04418,-0.137987 0.04912,-0.365604 0.01234,-0.559503 -0.03428,-0.17983 -0.175326,-0.552713 -0.313475,-0.82869 -0.138147,-0.275959 -0.507023,-0.804434 -0.81969,-1.174353 -0.312726,-0.370081 -0.768899,-0.831209 -1.013778,-1.024884 -0.24492,-0.193687 -0.479034,-0.388083 -0.520337,-0.43201 -0.04449,-0.04736 0.50586,-0.05913 1.351631,-0.02904 0.784701,0.02828 1.680156,0.109588 1.989906,0.181181 0.309767,0.07159 0.670924,0.157707 0.802613,0.191396 0.239414,0.06122 0.239414,0.06122 -0.01526,-0.63772 -0.142926,-0.391593 -0.309488,-1.070309 -0.378797,-1.543451 -0.08322,-0.568365 -0.108036,-1.052045 -0.07579,-1.479243 0.02621,-0.349118 0.09141,-0.809136 0.144699,-1.022289 0.0968,-0.387536 0.0968,-0.387536 0.269579,0.0126 0.09504,0.219979 0.316937,0.640036 0.493165,0.933389 0.176223,0.29334 0.552243,0.795651 0.83562,1.116226 0.28336,0.320578 0.740022,0.771324 1.014752,1.001659 0.274753,0.230328 0.798491,0.630937 1.163904,0.890216 0.365414,0.25929 1.069888,0.745611 1.565483,1.080729 0.495599,0.335128 1.197774,0.84415 1.560382,1.131168 0.362611,0.287012 0.889733,0.779212 1.171387,1.09375 0.281646,0.31455 0.606676,0.733455 0.722274,0.93092 0.115597,0.197488 0.225985,0.340262 0.24536,0.317342 0.0193,-0.02309 -0.07216,-0.313657 -0.203328,-0.646096 -0.131192,-0.332448 -0.425665,-0.893962 -0.654362,-1.247856 -0.228698,-0.35388 -0.603625,-0.846639 -0.833173,-1.095 -0.22955,-0.248398 -0.616643,-0.611774 -0.860207,-0.807579 -0.243554,-0.195793 -0.472866,-0.449486 -0.50956,-0.563731 -0.03669,-0.114238 -0.121791,-0.521355 -0.189103,-0.90469 -0.07799,-0.444377 -0.122351,-1.131907 -0.122306,-1.89705 3.3e-5,-0.660038 0.05293,-1.620099 0.117504,-2.133466 0.06457,-0.513364 0.221951,-1.321025 0.349643,-1.794795 0.127736,-0.473775 0.337958,-1.05381 0.467229,-1.288968 0.235021,-0.427567 0.235021,-0.427567 0.29385,0.416928 0.03251,0.464474 0.146583,1.184524 0.253802,1.600099 0.107229,0.415589 0.334392,1.074166 0.504829,1.463517 0.170434,0.389354 0.505514,1.020288 0.744636,1.402087 0.239111,0.381793 0.70852,1.05561 1.0431,1.497365 0.334564,0.441757 1.27185,1.509922 2.082828,2.373699 0.810978,0.863774 1.958312,2.131542 2.54963,2.817256 0.591324,0.685719 1.265662,1.54678 1.498524,1.913469 0.232889,0.366683 0.452352,0.706709 0.487733,0.755602 0.03541,0.0489 0.02975,-0.01993 -0.01257,-0.152531 -0.04232,-0.132812 -0.143173,-0.392805 -0.224104,-0.577814 -0.08091,-0.185006 -0.327921,-0.64596 -0.548941,-1.02433 -0.221008,-0.378372 -0.688321,-1.072773 -1.038427,-1.543115 -0.350109,-0.470339 -1.29548,-1.566006 -2.100832,-2.434808 -0.805346,-0.868799 -1.67009,-1.834501 -1.92165,-2.146007 -0.255692,-0.316631 -0.504033,-0.723153 -0.563176,-0.921944 -0.0729,-0.244961 -0.105007,-0.756566 -0.103324,-1.644551 0.0018,-0.957498 0.03707,-1.437557 0.13707,-1.866782 0.07402,-0.317788 0.221143,-0.80783 0.326906,-1.088961 0.10577,-0.281094 0.221502,-0.511138 0.257157,-0.511138 0.03563,0 0.06484,0.222109 0.06484,0.493595 0,0.271495 0.05311,0.781509 0.117976,1.133403 0.06772,0.367278 0.305674,1.094167 0.558685,1.706543 0.242398,0.586707 0.637031,1.373227 0.876979,1.747831 0.239939,0.374602 0.704185,1.029186 1.031643,1.454634 0.327465,0.425441 1.290501,1.530752 2.140084,2.456228 0.84959,0.925485 1.8431,2.071018 2.207798,2.545626 0.364704,0.474604 0.842518,1.182941 1.06181,1.574075 0.219303,0.391133 0.499064,0.95117 0.621715,1.244524 0.122666,0.293339 0.293711,0.793379 0.380153,1.11118 0.08643,0.317789 0.195968,0.837829 0.243479,1.155628 0.049,0.327982 0.06572,0.852014 0.03873,1.211968 -0.04575,0.609747 -0.04093,0.636133 0.125695,0.685646 0.09531,0.02865 0.320399,0.200534 0.500199,0.382739 0.179813,0.18219 0.373181,0.462397 0.429759,0.622687 0.05656,0.160318 0.102876,0.412747 0.102876,0.560988 0,0.166501 0.03862,0.26956 0.100991,0.26956 0.05553,0 0.302911,-0.154523 0.549644,-0.343277 0.24674,-0.188831 0.568647,-0.518824 0.71532,-0.733376 0.146651,-0.214574 0.319103,-0.51011 0.383202,-0.656784 0.102718,-0.235097 0.123002,-0.247169 0.170883,-0.101848 0.02973,0.09065 0.03428,0.650701 0.0101,1.244524 -0.03148,0.771473 -0.09922,1.302584 -0.236728,1.86053 -0.105815,0.429472 -0.290389,1.036565 -0.410077,1.34909 -0.119704,0.312539 -0.377458,0.861198 -0.572789,1.219269 -0.195318,0.358085 -0.579958,0.911054 -0.854713,1.228854 -0.274752,0.317788 -0.645548,0.672774 -0.823984,0.788844 -0.324422,0.211024 -0.324422,0.211024 -0.266428,-0.08888 0.03182,-0.164944 0.05553,-0.568232 0.05255,-0.896164 -0.0038,-0.434485 -0.05531,-0.723879 -0.18908,-1.066731 -0.100946,-0.258808 -0.281473,-0.586448 -0.401201,-0.728174 -0.119704,-0.141697 -0.386614,-0.349824 -0.593117,-0.462499 -0.206514,-0.112681 -0.578194,-0.269932 -0.825995,-0.34949 -0.254537,-0.08172 -0.9009,-0.166387 -1.485767,-0.194534 -0.569376,-0.02753 -1.024121,-0.07423 -1.010558,-0.104 0.01346,-0.02975 0.149119,-0.354144 0.301267,-0.720831 0.163726,-0.394683 0.295774,-0.8662 0.323583,-1.155635 0.04019,-0.41803 0.02334,-0.524242 -0.115732,-0.732589 -0.103369,-0.154798 -0.318409,-0.300446 -0.589574,-0.399309 -0.339601,-0.123788 -0.687778,-0.154294 -1.703387,-0.148844 -0.749293,0.0039 -1.664223,0.06919 -2.215176,0.157867 -0.516251,0.08309 -1.275171,0.251438 -1.686498,0.374087 -0.411329,0.122643 -0.758153,0.235172 -0.770725,0.250052 -0.01257,0.01489 0.323969,0.05336 0.747868,0.08554 0.423896,0.032 1.005126,0.117765 1.291616,0.190182 0.286505,0.07249 0.548222,0.164097 0.581627,0.203649 0.03359,0.03955 -0.05926,0.420231 -0.205886,0.845979 -0.146628,0.425749 -0.317251,1.061863 -0.379221,1.413588 -0.06195,0.351723 -0.09188,0.781621 -0.0665,0.955304 0.0252,0.173716 0.08634,0.37927 0.135522,0.456841 0.04914,0.07755 0.167787,0.19048 0.263631,0.250956 0.131259,0.08277 0.232712,0.08579 0.410869,0.01237 0.130115,-0.05371 0.335161,-0.206627 0.455632,-0.339855 0.219056,-0.242198 0.219056,-0.242198 0.17122,0.0246 -0.02623,0.146691 -0.09738,0.526696 -0.15796,0.844495 -0.06058,0.317789 -0.111334,0.870909 -0.11277,1.229141 -0.0025,0.598895 0.01481,0.671622 0.210418,0.903549 0.142141,0.168264 0.323375,0.270939 0.544412,0.308446 0.182237,0.0309 0.491848,0.01924 0.688025,-0.02485 0.196148,-0.04484 0.356679,-0.05128 0.356679,-0.01466 0,0.03722 -0.140526,0.316446 -0.31232,0.62096 -0.189304,0.335609 -0.5327,0.760995 -0.871902,1.0801 -0.307771,0.289545 -0.868395,0.70105 -1.245816,0.914476 -0.377425,0.213451 -0.933711,0.474563 -1.236196,0.580303 -0.30249,0.105764 -0.792449,0.213749 -1.088818,0.240014 C 51.72161,60.1882 51.72161,60.1882 52.1045,59.874694 Z m 7.201283,-12.949858 c 0.02518,-0.04885 -0.0654,-0.338884 -0.202071,-0.644483 -0.136667,-0.305581 -0.494422,-0.86129 -0.795029,-1.234887 -0.383117,-0.476133 -0.706527,-0.778769 -1.081452,-1.012004 -0.534872,-0.332745 -0.534872,-0.332745 -0.487529,-0.05249 0.02587,0.154134 0.152485,0.579211 0.280982,0.944613 0.139179,0.395815 0.371657,0.846112 0.5751,1.113984 0.187845,0.24732 0.475163,0.530358 0.638555,0.629045 0.163411,0.09864 0.437529,0.212329 0.60918,0.252518 0.171623,0.04017 0.335441,0.07753 0.363984,0.08286 0.02867,0.0053 0.07281,-0.03014 0.0983,-0.0791 z"
       vector-effect="non-scaling-stroke" />
  </g>
</svg>
