<svg xmlns="http://www.w3.org/2000/svg" viewBox="0 0 62.984855 40.909611">
  <g transform="translate(-69.291988,-114.20804)">
    <path d="m 78.079216,154.42128 c -11.761297,-3.38338 -11.191256,-23.39859 0.729766,-25.62341 3.511558,-0.65536 3.574783,-0.59499 2.901954,2.77078 l -0.525133,2.62694 0.396101,2.31481 c 0.217856,1.27315 0.635634,2.85632 0.928396,3.51815 l 0.532293,1.20334 1.007065,-0.003 c 2.497053,-0.008 10.399774,0.89533 10.399774,1.18928 0,0.16942 -0.625079,0.81642 -1.389063,1.43777 -1.977302,1.60814 -3.97447,4.05656 -5.272917,6.4643 -2.117512,3.92655 -5.438708,5.32965 -9.708236,4.10143 z m 10.284799,-2.90134 c 0,-1.85219 8.871255,-10.23402 14.216445,-13.43212 0.69392,-0.41519 2.03559,-1.22738 2.98148,-1.80487 8.90044,-5.43401 19.97978,-7.63371 24.15594,-4.79594 6.93072,4.70955 -3.07884,12.54553 -13.539,10.599 l -1.42161,-0.26454 -3.47319,1.05668 c -6.91246,2.10306 -17.970142,6.52693 -21.047846,8.42066 -1.507523,0.92758 -1.872219,0.97066 -1.872219,0.22113 z M 94.1628,141.12276 c -0.06063,-0.06 -2.253368,-0.25499 -4.872743,-0.43327 -3.512757,-0.23908 -4.884003,-0.42949 -5.225521,-0.72562 -0.718003,-0.62259 -0.584157,-1.11958 0.264583,-0.98242 0.400182,0.0647 3.466042,0.37844 6.813021,0.69727 6.707881,0.63899 6.427374,0.58486 5.958431,1.1499 -0.303356,0.36552 -2.630297,0.5985 -2.937771,0.29414 z m -4.475868,-2.55142 c -3.856302,-0.40966 -7.027338,-0.75253 -7.046746,-0.76194 -0.188748,-0.0915 -0.257811,-1.10834 -0.08263,-1.21661 0.126105,-0.0779 3.180787,0.15381 6.788181,0.515 3.607395,0.36118 7.541165,0.73786 8.741712,0.83706 2.298961,0.18996 2.552241,0.35245 1.594775,1.02308 -0.760786,0.53287 -1.535076,0.50215 -9.995295,-0.39659 z m 1.455208,-2.24544 c -4.656667,-0.48215 -8.555964,-0.88524 -8.665104,-0.89574 -1.188183,-0.11437 1.236303,-11.65439 3.374941,-16.06397 1.768399,-3.64621 3.519415,-4.82327 7.208392,-4.8456 2.026866,-0.0123 2.243962,0.12105 1.389063,0.85303 -0.575863,0.49307 -0.688327,1.51858 -0.255275,2.32775 0.437822,0.81807 0.784441,0.59469 0.784441,-0.50556 0,-2.91783 7.272632,-3.62479 15.081252,-1.46603 5.66474,1.56607 6.51559,2.81629 7.27208,10.68544 0.38876,4.04401 0.42029,3.86432 -0.72199,4.11521 -2.85622,0.62733 -8.97611,3.30699 -12.45802,5.45488 -2.49607,1.53974 -1.64382,1.51743 -13.00978,0.34059 z" />
  </g>
</svg>
