<?xml version="1.0" encoding="UTF-8" standalone="no"?>
<!-- Created with Inkscape (http://www.inkscape.org/) -->

<svg
   width="201"
   height="301"
   viewBox="0 0 53.181248 79.639582"
   version="1.1"
   id="svg1"
   xml:space="preserve"
   xmlns:xlink="http://www.w3.org/1999/xlink"
   xmlns="http://www.w3.org/2000/svg"
   xmlns:svg="http://www.w3.org/2000/svg"><defs
     id="defs1" /><g
     id="layer1"
     transform="translate(-64.534434,-107.04183)"><path
       style="display:none;fill:#000000;stroke-width:1.00047"
       d="m 118.24473,197.44048 c 20.53668,-6.42726 35.21816,-20.94745 42.62186,-42.15362 l 2.53275,-7.25448 0.30034,-37.40593 L 164,73.220518 h -18.62696 -18.62697 l 0.26718,6.12097 0.26718,6.12097 11.97229,0.253023 11.97229,0.253023 v 26.558046 c 0,14.60692 -0.42467,28.97936 -0.94371,31.93874 -5.0516,28.80254 -32.00215,47.60157 -59.774056,41.69467 -10.244168,-2.17887 -10.701726,-2.69762 -6.287154,-7.12803 l 3.709022,-3.72234 11.558536,-0.0365 c 26.178522,-0.0826 40.446762,-15.86112 40.213482,-44.47015 -0.0326,-3.98997 -0.0959,-13.29208 -0.14084,-20.67137 l -0.0817,-13.416896 -6.09909,0.268135 -6.09909,0.268134 -0.45178,23.577067 c -0.44961,23.46334 -0.46356,23.59948 -2.89218,28.21971 -6.21275,11.8192 -20.60361,17.0395 -33.459022,12.1373 l -4.745668,-1.80966 -12.431836,12.45255 c -14.204506,14.22818 -13.795349,13.36343 -8.138135,17.1999 15.5785,10.56464 35.910791,13.78692 53.082921,8.41264 z M 56.984426,172.47481 c 3.900356,-3.97052 3.995061,-4.1956 2.575432,-6.12097 -23.691186,-32.13115 0.527491,-80.437977 40.327676,-80.437977 h 3.448316 v 5.351826 5.351825 l -5.6473,0.649414 c -28.667735,3.296662 -44.686915,31.915162 -32.073255,57.299342 2.752348,5.53893 3.328026,5.59872 8.25856,0.85764 l 4.182409,-4.0217 -1.947787,-4.40635 c -7.123073,-16.11403 4.608887,-35.4462 22.287936,-36.72652 l 4.487657,-0.32499 0.269,5.66756 0.26901,5.66757 h -3.35212 c -4.730139,0 -10.781578,3.80047 -12.999872,8.16429 -7.880839,15.50313 10.919953,29.87489 23.794212,18.18884 5.00091,-4.53937 5.12152,-5.51747 5.12152,-41.53651 V 72.999998 l -13.77944,0.415864 c -53.574922,1.616895 -82.837654,55.479708 -53.715402,98.871948 3.536274,5.26905 3.501941,5.2683 8.493448,0.187 z"
       id="path1" /><path
       style="fill:#000000;stroke-width:0.986231"
       d="m 94.149029,185.47335 c -1.362759,-0.628 -3.12326,-1.43455 -3.912226,-1.79232 -0.788966,-0.35777 -2.25605,-1.02358 -3.260188,-1.47958 -1.004138,-0.456 -3.351473,-1.50849 -5.216301,-2.33887 -3.190863,-1.42084 -6.223468,-2.79386 -8.606897,-3.89679 -1.848622,-0.85546 -3.879408,-1.78001 -5.216302,-2.3748 -2.258532,-1.00485 -2.372843,-0.87443 2.738558,-3.12462 1.362759,-0.59993 3.181944,-1.41797 4.042634,-1.81787 0.86069,-0.39991 1.975675,-0.90529 2.477744,-1.12307 0.502068,-0.21778 1.591189,-0.70234 2.420267,-1.0768 1.72768,-0.78032 2.161796,-0.8228 3.212389,-0.31428 0.416522,0.2016 1.344146,0.62387 2.061388,0.93837 0.717241,0.31451 1.890909,0.84641 2.60815,1.18202 0.717241,0.33561 2.77116,1.26722 4.564263,2.07025 1.793104,0.80303 3.670973,1.66851 4.173042,1.92329 l 0.912852,0.46322 v 6.88375 c 0,4.36973 -0.09525,6.90862 -0.260815,6.95184 -0.143448,0.0374 -1.375799,-0.44573 -2.738558,-1.07374 z m 5.131135,0.74635 c -0.266098,-0.26635 -0.212694,-78.87689 0.05369,-79.04169 0.263976,-0.1633 7.711966,4.8696 10.203266,6.89476 0.64551,0.52473 2.53096,1.85241 4.18988,2.95037 1.65891,1.09798 3.21458,2.21573 3.45702,2.48389 0.40879,0.45214 0.436,2.4393 0.37439,27.34823 l -0.0664,26.86066 -2.47775,1.71603 c -1.36276,0.9438 -4.12088,2.87879 -6.12915,4.29996 -2.00828,1.42118 -4.74306,3.35424 -6.07731,4.29568 -1.33425,0.94145 -2.63427,1.85937 -2.888932,2.03983 -0.254671,0.18046 -0.542073,0.24899 -0.638681,0.15228 z M 64.853673,171.07899 c -0.09721,-0.0973 -0.176745,-3.15035 -0.176745,-6.78455 0,-7.63281 -0.364283,-6.70864 3.260187,-8.27106 1.147587,-0.49471 2.849405,-1.25279 3.781819,-1.68464 0.932414,-0.43186 2.223449,-1.02228 2.868965,-1.31207 0.645518,-0.28978 2.10397,-0.95124 3.241005,-1.46992 2.642421,-1.20538 2.48814,-1.59572 2.492933,6.30727 l 0.004,6.58539 -1.238872,0.55577 c -0.681379,0.30567 -1.943072,0.88227 -2.803762,1.28132 -0.86069,0.39906 -2.034358,0.92774 -2.60815,1.17485 -0.573794,0.24711 -1.512728,0.66609 -2.086521,0.93107 -6.067915,2.80225 -6.462176,2.95952 -6.734854,2.68657 z m 17.210925,-44.12297 c -0.09563,-0.0957 -0.173877,-3.08227 -0.173877,-6.63679 v -6.46275 l 1.966065,-0.93411 c 1.081336,-0.51376 2.017999,-0.93412 2.081473,-0.93412 0.06347,0 1.085955,-0.45207 2.272179,-1.00459 2.090771,-0.97386 2.504764,-1.16077 5.286554,-2.38674 0.717241,-0.3161 1.644866,-0.73967 2.061388,-0.94129 1.52354,-0.73743 1.474786,-0.95439 1.39889,6.22535 l -0.06968,6.59191 -1.173671,0.57251 c -1.194169,0.58251 -3.72173,1.73591 -5.607525,2.55889 -0.573792,0.2504 -1.890929,0.8525 -2.926971,1.33797 -4.433272,2.07739 -4.876807,2.25201 -5.114825,2.01376 z"
       id="path2" /></g></svg>
