<?xml version="1.0" encoding="UTF-8" standalone="no"?>
<!-- Created with Inkscape (http://www.inkscape.org/) -->

<svg
   version="1.1"
   id="svg1"
   width="326"
   height="434"
   viewBox="0 0 326 434"
   xmlns:xlink="http://www.w3.org/1999/xlink"
   xmlns="http://www.w3.org/2000/svg"
   xmlns:svg="http://www.w3.org/2000/svg">
  <defs
     id="defs1" />
  <g
     id="g1"
     transform="translate(-540.65483,-109.51317)">
    
    <path
       style="display:none;fill:#000000"
       d="m 646.77879,655.55409 c 1.25148,-1.591 2.14679,-4.82413 2.5615,-9.25 3.68848,-39.36495 28.33471,-61.69161 68.15971,-61.74488 19.00982,-0.0254 19.1068,-0.009 58,9.54508 41.81899,10.27329 57.89452,10.98479 79.67803,3.52653 C 938.37831,569.14459 934.12348,448.35032 849,422.23699 843.00319,420.39735 835.83756,419.05034 823.75,417.49044 819,416.87745 819,416.87745 819,378.96373 819,341.05 819,341.05 816.25,341.53246 c -1.5125,0.26535 -7.475,1.16915 -13.25,2.00844 -32.04851,4.65769 -61.17853,8.93742 -91,13.36956 -18.425,2.73837 -39.8,5.89237 -47.5,7.00888 -7.7,1.11652 -27.725,4.06447 -44.5,6.55099 -16.775,2.48653 -30.6125,4.52292 -30.75,4.52532 -0.75012,0.0131 -0.10707,68.97465 0.64752,69.44101 11.42346,7.06009 102.79441,14.39531 145.10248,11.64877 58.39134,-3.79064 84,-9.43165 84,-18.50329 0,-7.97669 4.0453,-8.60737 23.3365,-3.63827 75.64722,19.48548 81.59122,126.94992 8.38056,151.51611 -17.90713,6.00883 -33.81391,5.22415 -69.71706,-3.43912 -53.05329,-12.80152 -73.08498,-14.0782 -95.05969,-6.05842 -27.38343,9.99371 -46.62954,37.12303 -49.47472,69.73956 -0.97409,11.16677 4.88008,16.75919 10.3132,9.85209 z M 863.07692,539.07692 C 866,536.15385 866,536.15385 866,514.01118 c 0,-23.39954 -0.23904,-24.80756 -4.8372,-28.49218 -19.0867,-15.29467 -36.72908,-28.51412 -38.02894,-28.49514 -0.89862,0.0131 -3.43386,0.46246 -5.63386,0.99853 -58.91239,14.35515 -144.39004,15.08372 -216.7842,1.84776 -14.35758,-2.62502 -17.05763,-2.87361 -18.67546,-1.71942 -8.19828,5.84881 -31.42336,24.22988 -35.27205,27.91543 -7.77713,7.44747 -7.30234,51.75783 0.58871,54.94226 7.02902,2.83656 312.82264,0.96579 315.71992,-1.9315 z M 596.9728,360.93473 c 3.56005,-0.57759 17.06005,-2.61002 30,-4.51652 12.93996,-1.90649 37.2522,-5.49389 54.0272,-7.97201 16.775,-2.47811 42.65,-6.27989 57.5,-8.44839 37.72103,-5.50829 73.39751,-10.82387 77.25,-11.50979 C 819.45843,327.82775 821.15933,304 817.49804,304 c -0.82608,0 -13.76358,1.81656 -28.75,4.03679 -27.0105,4.0016 -55.65022,8.20582 -135.74804,19.92739 -22.825,3.34022 -45.96676,6.73974 -51.42614,7.55448 C 596.11449,336.3334 591.05199,337 590.32386,337 589.29598,337 589,339.7947 589,349.5 c 0,6.875 0.3375,12.4966 0.75,12.49245 0.4125,-0.004 3.66276,-0.48013 7.2228,-1.05772 z m 11.77415,-39.38468 c 27.1698,-3.97328 82.91841,-12.19421 108.75305,-16.03719 13.2,-1.96353 34.575,-5.11405 47.5,-7.00115 43.95186,-6.41714 51.49903,-7.56258 52.75,-8.00593 3.42879,-1.21519 1.48008,-24.63599 -2,-24.03718 -1.7875,0.30757 -10.9,1.65866 -20.25,3.00243 -9.35,1.34376 -32.075,4.66154 -50.5,7.37283 -18.425,2.7113 -60.5,8.84806 -93.5,13.63725 -33,4.78918 -60.5625,8.87602 -61.25,9.08186 -2.00481,0.60025 -1.76392,24.43703 0.24695,24.43703 0.82332,0 9.03582,-1.10248 18.25,-2.44995 z m 12.52811,-39.527 C 636.24878,279.86361 668.3,275.16811 692.5,271.58862 c 24.2,-3.5795 52.325,-7.68266 62.5,-9.11815 10.175,-1.43549 28.59468,-4.15359 40.93263,-6.04023 12.33794,-1.88663 22.57544,-3.43024 22.75,-3.43024 1.97421,0 0.0605,-43.01666 -1.93263,-43.44158 -34.42079,-7.33834 -97.33213,-11.73891 -137.75,-9.63544 -91.45969,4.75985 -89.46013,3.68062 -89.76185,48.44777 -0.26184,38.85201 -0.26184,38.85201 2.27507,38.21529 1.3953,-0.3502 14.78813,-2.40354 29.76184,-4.56299 z m -13.49085,-88.01526 c 38.23669,-5.71398 48.80709,-6.41921 96.21579,-6.41921 51.29944,0 57.0232,0.45585 114.02791,9.08136 3.25647,0.49275 4.64136,-0.30132 18,-10.32086 C 869.81352,161.00844 866,166.9899 866,139.33818 c 0,-23.42909 0,-23.42909 -2.45455,-25.88363 C 860.09307,110.00216 549.4813,109.52349 545,112.96364 c -4.54162,3.48647 -4.37027,48.35229 0.20109,52.65233 C 549.45486,169.61726 585.88022,197 586.9491,197 c 0.44656,0 9.82236,-1.34649 20.83511,-2.99221 z"
       id="path1" />
    <path
       style="display:inline;fill:#000000"
       d="m 819,378.96373 c 0,-37.91373 0,-37.91373 -2.75,-37.43127 -1.5125,0.26535 -7.475,1.16915 -13.25,2.00844 -32.04851,4.65769 -61.17853,8.93742 -91,13.36956 -18.425,2.73837 -39.8,5.89237 -47.5,7.00888 -7.7,1.11652 -27.725,4.06447 -44.5,6.55099 -16.775,2.48653 -30.6125,4.52292 -30.75,4.52532 -0.75012,0.0131 -0.10707,68.97465 0.64752,69.44101 11.42346,7.06009 102.79441,14.39531 145.10248,11.64877 58.39134,-3.79064 84,-9.43165 84,-18.50329 z m 44.07692,160.11319 C 866,536.15385 866,536.15385 866,514.01118 c 0,-23.39954 -0.23904,-24.80756 -4.8372,-28.49218 -19.0867,-15.29467 -36.72908,-28.51412 -38.02894,-28.49514 -0.89862,0.0131 -3.43386,0.46246 -5.63386,0.99853 -58.91239,14.35515 -144.39004,15.08372 -216.7842,1.84776 -14.35758,-2.62502 -17.05763,-2.87361 -18.67546,-1.71942 -8.19828,5.84881 -31.42336,24.22988 -35.27205,27.91543 -7.77713,7.44747 -7.30234,51.75783 0.58871,54.94226 7.02902,2.83656 312.82264,0.96579 315.71992,-1.9315 z M 596.9728,360.93473 c 3.56005,-0.57759 17.06005,-2.61002 30,-4.51652 12.93996,-1.90649 37.2522,-5.49389 54.0272,-7.97201 16.775,-2.47811 42.65,-6.27989 57.5,-8.44839 37.72103,-5.50829 73.39751,-10.82387 77.25,-11.50979 C 819.45843,327.82775 821.15933,304 817.49804,304 c -0.82608,0 -13.76358,1.81656 -28.75,4.03679 -27.0105,4.0016 -55.65022,8.20582 -135.74804,19.92739 -22.825,3.34022 -45.96676,6.73974 -51.42614,7.55448 C 596.11449,336.3334 591.05199,337 590.32386,337 589.29598,337 589,339.7947 589,349.5 c 0,6.875 0.3375,12.4966 0.75,12.49245 0.4125,-0.004 3.66276,-0.48013 7.2228,-1.05772 z m 11.77415,-39.38468 c 27.1698,-3.97328 82.91841,-12.19421 108.75305,-16.03719 13.2,-1.96353 34.575,-5.11405 47.5,-7.00115 43.95186,-6.41714 51.49903,-7.56258 52.75,-8.00593 3.42879,-1.21519 1.48008,-24.63599 -2,-24.03718 -1.7875,0.30757 -10.9,1.65866 -20.25,3.00243 -9.35,1.34376 -32.075,4.66154 -50.5,7.37283 -18.425,2.7113 -60.5,8.84806 -93.5,13.63725 -33,4.78918 -60.5625,8.87602 -61.25,9.08186 -2.00481,0.60025 -1.76392,24.43703 0.24695,24.43703 0.82332,0 9.03582,-1.10248 18.25,-2.44995 z m 12.52811,-39.527 C 636.24878,279.86361 668.3,275.16811 692.5,271.58862 c 24.2,-3.5795 52.325,-7.68266 62.5,-9.11815 10.175,-1.43549 28.59468,-4.15359 40.93263,-6.04023 12.33794,-1.88663 22.57544,-3.43024 22.75,-3.43024 1.97421,0 0.0605,-43.01666 -1.93263,-43.44158 -34.42079,-7.33834 -97.33213,-11.73891 -137.75,-9.63544 -91.45969,4.75985 -89.46013,3.68062 -89.76185,48.44777 -0.26184,38.85201 -0.26184,38.85201 2.27507,38.21529 1.3953,-0.3502 14.78813,-2.40354 29.76184,-4.56299 z m -13.49085,-88.01526 c 38.23669,-5.71398 48.80709,-6.41921 96.21579,-6.41921 51.29944,0 57.0232,0.45585 114.02791,9.08136 3.25647,0.49275 4.64136,-0.30132 18,-10.32086 C 869.81352,161.00844 866,166.9899 866,139.33818 c 0,-23.42909 0,-23.42909 -2.45455,-25.88363 C 860.09307,110.00216 549.4813,109.52349 545,112.96364 c -4.54162,3.48647 -4.37027,48.35229 0.20109,52.65233 C 549.45486,169.61726 585.88022,197 586.9491,197 c 0.44656,0 9.82236,-1.34649 20.83511,-2.99221 z"
       id="path2" />
  </g>
</svg>
