<?xml version="1.0" encoding="UTF-8" standalone="no"?>
<!-- Created with Inkscape (http://www.inkscape.org/) -->

<svg
   width="687.50702"
   height="626.97235"
   viewBox="0 0 181.90288 165.88641"
   version="1.1"
   id="svg1"
   xml:space="preserve"
   xmlns="http://www.w3.org/2000/svg"
   xmlns:svg="http://www.w3.org/2000/svg"><defs
     id="defs1" /><g
     id="layer1"
     transform="translate(-14.079561,-65.756632)"><path
       style="fill:#030303;stroke:none"
       d="m 101.94352,66.055987 c -2.416452,0.3462 -5.256783,0.916902 -7.11598,2.619511 -2.278841,2.08692 -1.445874,5.510225 1.295149,6.695004 2.327611,1.006092 5.496201,-0.05008 7.937491,-0.156983 3.29974,-0.144484 6.79917,0.975603 10.05417,0.462197 3.98131,-0.627965 4.79036,-5.510161 1.58648,-7.625342 -3.69463,-2.439176 -9.49843,-2.60454 -13.75731,-1.994387 m -2.381248,11.640649 c -7.122183,0.937911 -11.937643,5.2111 -16.933333,10.206467 -5.817619,5.817232 -11.152379,11.97338 -15.398708,19.049997 -1.874332,3.12363 -3.586704,6.33868 -4.790264,9.78958 -0.310329,0.88979 -1.223229,2.95969 -0.508342,3.8091 0.838785,0.99665 4.155604,0.42423 5.351482,0.42423 4.783307,0 9.5533,0.66665 14.287499,1.32292 14.231237,1.97279 28.215404,6.40653 41.804164,10.93611 4.31122,1.43708 8.60335,2.98036 12.96458,4.25742 1.39869,0.40957 3.52309,1.65363 4.99177,1.36641 1.8265,-0.35721 1.32396,-4.63846 1.39272,-5.97661 0.32988,-6.41997 -1.4797,-12.77955 -3.56512,-18.78541 -3.28344,-9.45612 -8.50923,-18.425003 -14.43042,-26.458331 -2.24373,-3.044097 -4.78293,-7.050021 -8.2327,-8.818631 -4.32387,-2.216741 -12.22107,-1.743805 -16.933328,-1.123252 m -14.557388,0.56836 c -5.312086,-0.133438 -11.27784,1.63417 -16.398861,2.897966 -15.10104,3.72671 -31.518149,10.216543 -42.30965,21.821388 -5.63966,6.06471 -8.610656,14.36332 -6.217504,22.48958 0.532207,1.80718 2.073014,6.81441 4.34276,7.00023 1.249894,0.10232 2.695988,-1.31109 3.703145,-1.91925 2.63306,-1.58994 5.383655,-2.94895 8.202084,-4.17495 4.056317,-1.76447 8.362191,-3.10615 12.699999,-3.97528 1.839693,-0.36861 5.2949,-0.29119 6.796077,-1.41234 0.814715,-0.60847 0.869883,-2.01357 1.110801,-2.92674 0.573475,-2.17371 1.36326,-4.29131 2.259572,-6.35 2.533606,-5.81931 6.452492,-11.28109 10.492487,-16.139581 3.9139,-4.706851 8.284838,-9.185211 12.943145,-13.157304 0.604534,-0.515488 5.276285,-4.080871 2.375945,-4.153719 m 38.634466,0.642274 c 1.15884,3.493811 4.95885,6.778801 7.10639,9.789583 4.18972,5.873833 7.98363,12.187367 10.92203,18.785417 2.85763,6.41667 5.50648,13.56779 6.02518,20.63749 0.20568,2.80315 0.26539,5.39894 0.004,8.20209 -0.0998,1.06851 -0.81711,2.84398 -0.34584,3.85503 0.41262,0.88522 2.17548,1.00447 3.01148,1.20267 3.05881,0.72517 6.14973,1.30157 9.26041,1.7498 5.65694,0.81515 11.23412,1.28158 16.93334,0.88909 2.91429,-0.20069 6.21909,-0.40729 8.73125,-2.10074 3.05855,-2.06178 5.12887,-5.92858 6.39899,-9.30002 3.26857,-8.67616 -0.3051,-17.5245 -5.81818,-24.34167 -9.92005,-12.266571 -25.39131,-19.931526 -40.00373,-25.004343 -5.15069,-1.788101 -10.49477,-3.169929 -15.875,-4.078368 -2.02077,-0.34121 -4.42843,-1.205466 -6.35,-0.286029 m -93.133646,73.28958 c -3.074119,7.92585 -2.116666,16.50222 -2.116666,24.87083 0,16.33605 -3.383593,35.36423 10.322629,47.32592 1.890901,1.65022 4.063552,3.1298 6.34612,4.18597 8.205039,3.79652 16.852968,2.99227 25.664583,2.99227 h 40.74583 29.10416 c 10.36043,0 19.64414,0.24403 28.31042,-6.41227 10.92448,-8.39073 11.37708,-20.45676 11.37708,-33.01064 v -22.225 c 0,-4.99754 0.36024,-10.16548 -0.70433,-15.08125 -0.27896,-1.28814 -0.60806,-3.97137 -1.78776,-4.75515 -1.128,-0.74943 -3.60741,-0.26582 -4.91624,-0.27214 -3.50709,-0.0169 -7.10058,-0.43556 -10.58333,-0.86888 -11.26367,-1.40142 -22.03564,-4.59373 -32.80834,-8.0357 -17.68814,-5.65152 -35.187556,-11.75667 -53.710407,-14.03863 -14.380049,-1.77158 -29.237883,-0.44048 -42.333332,6.10807 -4.163703,2.08212 -8.837437,5.08057 -11.251326,9.16243 -1.583628,2.67789 -1.653074,6.0391 0.933802,8.09878 2.315059,1.84326 4.82941,1.18842 7.407107,1.95539 m 45.243749,-6.53905 c 5.0029,-0.59028 10.340817,-0.0405 15.345833,0.17863 11.497904,0.50352 22.807314,2.00524 34.131244,4.14086 6.08813,1.14818 12.07714,2.83465 18.25625,3.49858 4.28071,0.45995 8.68634,0.51646 12.96458,0.003 3.70533,-0.44482 7.46285,-1.61144 10.58232,1.14836 5.89596,5.21617 4.23435,14.8861 4.23435,21.91142 0,14.86993 4.19546,35.93883 -11.90625,43.98452 -1.9983,0.99851 -4.14191,1.62334 -6.35,1.93968 -8.05678,1.15423 -16.99155,0.1133 -25.13542,0.1133 H 77.601856 c -9.836447,0 -22.340456,2.20424 -30.956249,-3.46042 -9.323623,-6.13001 -9.260416,-15.42576 -9.260416,-25.37916 v -21.43125 c 0,-7.17732 -0.617523,-13.90791 5.027285,-19.30397 8.148081,-7.78902 23.032972,-6.12762 33.337297,-7.34341 m -51.858332,18.82237 c -10.374551,1.30805 -9.789583,12.21777 -9.789583,20.26042 0,3.23606 -0.219678,6.65339 0.720051,9.78959 1.340955,4.47521 5.270681,8.76829 10.376934,7.8983 1.984722,-0.33815 1.073848,-7.04533 1.073848,-8.69205 v -22.48958 c 0,-2.32593 1.110258,-7.2069 -2.38125,-6.76668 m 161.397049,0.0153 c -2.72851,0.36368 -1.58872,6.75071 -1.58872,8.86803 v 22.225 c 0,3.27987 -1.19444,7.20594 3.175,6.85446 10.78944,-0.86789 8.99631,-16.174 8.99583,-23.52321 -1.6e-4,-2.53359 -0.21699,-5.26961 -1.08222,-7.67291 -1.37173,-3.81025 -5.17893,-7.3273 -9.49989,-6.75137 m -115.35955,0.51855 c -9.150725,1.10086 -6.879167,12.97032 -6.879167,19.46198 0,2.77409 -0.40912,5.87104 0.768433,8.46667 1.326433,2.92379 4.54279,4.56619 7.698234,4.18453 8.911657,-1.07786 6.614583,-13.28668 6.614583,-19.53037 0,-2.60898 0.354218,-5.4683 -0.654926,-7.93749 -1.185571,-2.90088 -4.360514,-5.02869 -7.547157,-4.64532 m 65.88124,0.003 c -9.04186,1.20232 -6.87916,12.99333 -6.87916,19.45912 0,2.77756 -0.35747,5.86873 0.84377,8.46667 1.3737,2.97091 4.69794,4.6246 7.88748,4.15372 8.7474,-1.29143 6.35,-13.53469 6.35,-19.76414 0,-2.57302 0.4055,-5.5239 -0.66921,-7.9375 -1.25597,-2.82066 -4.42798,-4.79074 -7.53288,-4.37787 M 92.948707,195.7617 c -4.608141,1.44034 -0.602984,6.07194 1.586482,7.47611 4.426224,2.83869 10.134141,3.45793 15.081241,1.69121 2.34899,-0.83887 5.24951,-2.3615 6.55416,-4.57876 1.16646,-1.98242 0.0609,-4.50316 -2.32082,-4.70105 -1.77685,-0.14763 -2.9042,1.3478 -4.23334,2.26243 -1.77839,1.22379 -4.17025,2.03757 -6.35,1.79411 -1.78516,-0.19939 -3.500213,-0.63343 -5.027074,-1.61628 -1.630158,-1.04936 -3.112464,-3.00859 -5.290649,-2.32777 z"
       id="path1" /></g></svg>
