<?xml version="1.0" encoding="UTF-8" standalone="no"?>
<!-- Created with Inkscape (http://www.inkscape.org/) -->

<svg
   width="500.98438"
   height="601.99988"
   viewBox="0 0 132.55212 159.27914"
   version="1.1"
   id="svg1"
   xml:space="preserve"
   xmlns="http://www.w3.org/2000/svg"
   xmlns:svg="http://www.w3.org/2000/svg"><defs
     id="defs1" /><g
     id="layer1"
     transform="translate(-38.728062,-63.427371)"><path
       style="fill:#e8c263;stroke:none"
       d="m 130.26978,63.427371 c -8.01171,9.171807 -17.01159,16.78473 -27.25209,23.364787 -5.041568,3.239482 -10.627338,5.628064 -15.610415,8.914378 2.011327,-5.95503 3.614976,-12.509604 2.116666,-18.785416 h -0.264583 c -4.193276,9.731156 -11.430956,19.424282 -19.049999,26.71249 -2.442939,2.33686 -5.002472,4.58015 -7.672916,6.65562 -1.807052,1.40445 -4.105119,2.77349 -5.363731,4.73188 -1.292767,2.01154 0.701822,3.8229 -0.143112,5.55625 -1.583882,3.24927 -10.058849,10.1599 -12.484823,4.7625 -5.817539,4.48994 -7.502073,16.01261 -4.001613,22.225 1.262673,2.24092 3.47524,5.03027 6.118279,5.55625 -0.949473,-3.3787 -0.623653,-6.38467 1.852084,-8.99583 0.958226,1.84591 2.61972,2.91807 4.497916,3.70416 l 0.264583,-0.26458 c -0.53368,-2.24263 -0.140737,-6.87109 2.910619,-7.097 1.25325,-0.0928 2.382049,0.71995 3.439381,1.27617 2.166203,-9.11986 15.192475,-11.09091 23.018749,-11.1125 v 0.26458 c -4.346989,1.41687 -8.166588,4.03482 -10.939375,7.67292 -3.936953,5.16556 -6.721642,13.78987 -14.460624,14.2626 -1.547733,0.0945 -2.793692,-0.62188 -4.233333,-1.03344 -2.598937,8.79256 6.642012,14.00506 13.758333,15.34584 l -3.704167,-6.08542 11.1125,1.32292 c -3.153118,-5.69289 0.479928,-10.69536 5.556249,-13.96535 7.731036,-4.98006 17.664239,-7.70172 26.193752,-3.23257 -0.15559,-3.40486 -2.16679,-5.92404 -4.49792,-8.20208 5.42527,0.23645 10.86543,4.58384 10.72748,10.31875 -0.0894,3.71763 -2.28072,7.11578 -4.68718,9.78958 -11.139697,12.37731 -30.46258,18.5293 -33.027798,37.04167 -0.403553,2.91235 -0.33693,5.82202 0.07554,8.73125 0.479017,3.3786 1.606201,6.76244 3.167854,9.78958 1.79419,3.47789 4.372706,7.77133 7.604526,10.05416 -2.536707,-9.48902 2.146461,-16.90332 9.260416,-23.09326 7.575942,-6.59192 16.160042,-12.16035 25.135412,-16.65957 4.65841,-2.33518 10.287,-5.53573 15.61042,-5.74487 6.16569,-0.24225 6.12637,5.62873 5.55625,10.04354 2.59806,-2.14722 4.13975,-6.0318 5.62157,-8.99583 5.05617,-10.11368 6.39233,-20.67235 4.96176,-31.75 5.51964,4.77639 10.29409,9.86781 12.7,16.93333 h 0.26458 c 0,-12.46875 -1.70078,-24.26867 -8.6947,-34.925 -2.04524,-3.11623 -4.7756,-5.42208 -7.1803,-8.20208 l 10.84792,2.04277 11.90625,5.36556 c -1.26197,-3.28069 -4.43379,-6.28963 -6.87917,-8.73125 -7.544,-7.53237 -18.65099,-14.60978 -29.63333,-15.08125 v -0.26458 c 1.7201,-0.76647 3.10211,-2.18002 4.7625,-3.09253 4.89429,-2.689783 10.76545,-4.86683 16.40417,-5.109548 v -0.264583 c -12.31992,-4.161131 -29.58156,-5.507512 -41.53958,0.79375 6.1154,-7.584356 11.62306,-13.900572 14.36425,-23.547915 0.68439,-2.408655 2.26412,-6.5465 1.51075,-8.995833 m -4.23334,45.243739 v 0.26459 c -2.79939,0.64765 -5.48308,1.90873 -7.67291,3.78358 -0.98762,0.84556 -2.11685,3.00014 -3.2781,3.44141 -1.30717,0.49672 -3.7998,-0.43324 -5.18857,-0.5655 -2.50723,-0.23878 -4.935,0.17142 -7.40833,0.48426 5.56096,-6.08474 15.82744,-7.40834 23.54791,-7.40834 m -42.862495,2.38125 c -2.276257,7.90143 -8.974104,10.02702 -16.139582,11.37709 3.366534,-4.76601 10.499996,-9.75251 16.139582,-11.37709 m 43.656245,15.08125 v 0.26459 c -3.4244,0 -6.80979,0.39897 -10.05416,1.55156 -1.52052,0.54018 -3.69453,2.37274 -5.29167,2.24693 -1.21732,-0.0959 -2.4014,-1.29345 -3.43958,-1.86394 -1.97782,-1.08683 -4.08002,-2.01372 -6.35,-2.19914 1.51798,-1.46827 4.32207,-1.84967 6.35,-2.18179 6.77129,-1.10895 12.29576,0.6804 18.78541,2.18179 m -8.46666,8.20209 c 1.98871,1.24265 3.72687,2.782 5.0034,4.7625 10.12429,15.7075 -10.2831,28.66483 -20.8784,36.61129 -2.873607,2.15522 -5.781125,4.9148 -8.995835,6.51579 8.248905,-11.71027 24.227845,-17.947 27.130395,-33.3375 0.63756,-3.38058 0.42611,-6.75154 -0.52059,-10.05417 -0.41645,-1.45278 -1.69595,-3.04497 -1.73897,-4.49791 z"
       id="path1" /></g></svg>
