<?xml version="1.0" encoding="UTF-8" standalone="no"?>
<!-- Created with Inkscape (http://www.inkscape.org/) -->

<svg
   width="39.685326mm"
   height="55.559483mm"
   viewBox="0 0 39.685326 55.559483"
   version="1.1"
   id="svg1"
   xml:space="preserve"
   xmlns="http://www.w3.org/2000/svg"
   xmlns:svg="http://www.w3.org/2000/svg"><defs
     id="defs1" /><g
     id="layer1"
     transform="translate(-108.34796,-149.99891)"><path
       style="fill:#000000;stroke:#000000;stroke-width:0.264583;stroke-dasharray:none"
       d="M 108.47916,181.50418 V 128.05833 A 1.0583333,1.0583333 135 0 1 109.53749,127 h 24.34168 c 0.5845,0 1.534,-0.005 2.11424,0.0621 6.13786,0.71529 12.7537,7.55727 13.44664,17.93079 0.0389,0.58316 0.0498,1.53107 0.0302,2.11522 -0.371,11.0738 -5.98597,16.52634 -12.15207,16.9161 -0.58313,0.0369 -1.53164,0.0174 -2.11614,0.0174 h -9.78959 A 1.0583333,1.0583333 135 0 0 124.35416,165.1 v 5.82084 10.58334 c 0,0.5845 -0.19352,1.56307 -0.7073,1.75977 -1.01257,0.38766 -2.86455,0.38766 -3.8771,-1e-5 -0.51376,-0.1967 -0.70726,-1.17526 -0.70726,-1.75976 v -8.46668 -10.58333 c 0,-0.5845 -0.005,-1.55703 0.25008,-2.07729 0.28651,-0.58426 0.79252,-1.09027 1.37678,-1.37679 0.52027,-0.25514 1.4928,-0.25008 2.0773,-0.25008 h 12.43542 c 0.5845,0 1.5353,0.009 2.11298,-0.0762 4.82706,-0.71501 6.48068,-6.34855 6.83241,-12.09585 0.0357,-0.58341 0.0503,-1.53113 0.0273,-2.11515 -0.23844,-6.04169 -2.32132,-9.92431 -8.22369,-11.86691 -0.55514,-0.18271 -1.48737,-0.30529 -2.07187,-0.30661 l -8.79627,-0.0197 a 456.72786,456.72786 179.99587 0 0 -2.11666,1.5e-4 l -8.13708,0.0194 a 1.0608651,1.0608651 134.93155 0 0 -1.05833,1.06086 l 0,24.34168 v 23.8125 c 0,0.5845 -0.19352,1.56307 -0.70731,1.75977 -1.01257,0.38766 -2.86455,0.38766 -3.8771,-1e-5 -0.51376,-0.19671 -0.70726,-1.17526 -0.70726,-1.75976 z m 17.91757,-28.90927 c -0.51856,-1.08005 -0.51856,-2.48475 -1e-5,-3.5648 0.25178,-0.52442 1.07685,-0.88264 1.6613,-0.88635 0.94599,-0.006 2.18127,0.008 3.17589,0.0168 0.58417,0.005 1.64495,0.21444 2.08487,-0.15452 0.21953,-0.18411 0.27613,-0.57925 0.29073,-1.42722 0.0101,-0.58421 0.0101,-1.53185 -1e-5,-2.11626 -0.0146,-0.84809 -0.0713,-1.24311 -0.291,-1.42711 -0.44007,-0.3685 -1.50067,-0.16042 -2.08517,-0.16042 h -8.46667 c -0.5845,0 -1.56307,-0.19351 -1.75978,-0.7073 -0.38766,-1.01257 -0.38765,-2.86457 2e-5,-3.87712 0.19671,-0.51377 1.17526,-0.70727 1.75976,-0.70727 h 8.46667 c 0.5845,0 1.53407,-0.008 2.11455,0.0573 3.99172,0.45186 5.30924,3.51228 5.52502,6.82258 0.038,0.58318 0.0367,1.53173 0.0136,2.11574 -0.16807,4.24022 -1.45152,6.52033 -5.53748,6.84026 -0.58256,0.0456 -1.53116,0.0392 -2.11566,0.0392 l -3.175,1e-5 c -0.5845,1e-5 -1.40982,-0.33901 -1.6616,-0.86342 z"
       id="path1"
       transform="matrix(0.96171164,0,0,0.97772714,4.1495071,25.957076)" /></g></svg>
